<svg
        xmlns="http://www.w3.org/2000/svg"
        width="51px" height="44px">
    <path fill-rule="evenodd" opacity="0.4" fill="rgb(255, 255, 255)"
          d="M39.475,11.813 C32.901,11.813 27.949,9.276 27.949,5.907 C27.949,2.537 32.901,-0.000 39.475,-0.000 C46.048,-0.000 51.000,2.537 51.000,5.907 C51.000,9.276 46.048,11.813 39.475,11.813 ZM39.475,2.537 C33.993,2.537 30.494,4.538 30.494,5.917 C30.494,7.296 33.993,9.297 39.475,9.297 C44.956,9.297 48.455,7.296 48.455,5.917 C48.455,4.538 44.956,2.537 39.475,2.537 ZM11.525,24.690 C4.951,24.690 -0.000,22.153 -0.000,18.783 C-0.000,15.414 4.951,12.877 11.525,12.877 C18.099,12.877 23.051,15.414 23.051,18.783 C23.051,22.153 18.099,24.690 11.525,24.690 ZM11.525,15.404 C6.044,15.404 2.545,17.404 2.545,18.783 C2.545,20.163 6.044,22.163 11.525,22.163 C17.007,22.163 20.506,20.163 20.506,18.783 C20.506,17.404 17.007,15.404 11.525,15.404 ZM0.954,25.048 C1.590,24.753 2.354,25.027 2.651,25.659 C3.329,27.101 6.839,28.596 11.525,28.596 C16.339,28.596 19.902,27.017 20.442,25.553 C20.686,24.901 21.418,24.564 22.075,24.806 C22.733,25.048 23.072,25.775 22.839,26.417 C22.308,27.859 20.856,29.070 18.651,29.923 C16.646,30.702 14.123,31.123 11.525,31.123 C6.075,31.123 1.580,29.365 0.339,26.733 C0.042,26.101 0.318,25.343 0.954,25.048 ZM0.954,31.492 C1.590,31.197 2.354,31.471 2.651,32.102 C3.329,33.545 6.839,35.040 11.525,35.040 C16.339,35.040 19.902,33.461 20.442,31.997 C20.686,31.344 21.418,31.007 22.075,31.250 C22.733,31.481 23.072,32.208 22.839,32.860 C22.308,34.303 20.856,35.514 18.651,36.367 C16.646,37.146 14.123,37.567 11.525,37.567 C6.075,37.567 1.580,35.809 0.339,33.176 C0.042,32.545 0.318,31.787 0.954,31.492 ZM0.954,37.925 C1.590,37.630 2.354,37.904 2.651,38.535 C3.329,39.978 6.839,41.473 11.525,41.473 C16.339,41.473 19.902,39.894 20.442,38.430 C20.686,37.777 21.418,37.440 22.075,37.683 C22.733,37.925 23.072,38.651 22.839,39.294 C22.308,40.736 20.856,41.947 18.651,42.800 C16.646,43.579 14.123,44.000 11.525,44.000 C6.075,44.000 1.580,42.242 0.339,39.609 C0.042,38.978 0.318,38.220 0.954,37.925 ZM28.914,12.171 C29.550,11.876 30.314,12.150 30.611,12.782 C31.289,14.224 34.799,15.719 39.485,15.719 C44.299,15.719 47.862,14.140 48.402,12.677 C48.646,12.024 49.378,11.687 50.035,11.929 C50.693,12.171 51.032,12.898 50.799,13.540 C50.268,14.982 48.816,16.193 46.610,17.046 C44.606,17.825 42.083,18.246 39.485,18.246 C34.035,18.246 29.540,16.488 28.299,13.856 C28.002,13.224 28.278,12.466 28.914,12.171 ZM28.914,18.615 C29.550,18.320 30.314,18.594 30.611,19.226 C31.289,20.668 34.799,22.163 39.485,22.163 C44.299,22.163 47.862,20.584 48.402,19.120 C48.646,18.468 49.378,18.131 50.035,18.373 C50.693,18.615 51.032,19.341 50.799,19.984 C50.268,21.426 48.816,22.637 46.610,23.490 C44.606,24.269 42.083,24.690 39.485,24.690 C34.035,24.690 29.540,22.932 28.299,20.300 C28.002,19.668 28.278,18.910 28.914,18.615 ZM28.914,25.048 C29.550,24.753 30.314,25.027 30.611,25.659 C31.289,27.101 34.799,28.596 39.485,28.596 C44.299,28.596 47.862,27.017 48.402,25.553 C48.646,24.901 49.378,24.564 50.035,24.806 C50.693,25.048 51.032,25.775 50.799,26.417 C50.268,27.859 48.816,29.070 46.610,29.923 C44.606,30.702 42.083,31.123 39.485,31.123 C34.035,31.123 29.540,29.365 28.299,26.733 C28.002,26.101 28.278,25.343 28.914,25.048 ZM28.914,31.492 C29.550,31.197 30.314,31.471 30.611,32.102 C31.289,33.545 34.799,35.040 39.485,35.040 C44.299,35.040 47.862,33.461 48.402,31.997 C48.646,31.344 49.378,31.007 50.035,31.250 C50.693,31.481 51.032,32.208 50.799,32.860 C50.268,34.303 48.816,35.514 46.610,36.367 C44.606,37.146 42.083,37.567 39.485,37.567 C34.035,37.567 29.540,35.809 28.299,33.176 C28.002,32.545 28.278,31.787 28.914,31.492 ZM28.914,37.925 C29.550,37.630 30.314,37.904 30.611,38.535 C31.289,39.978 34.799,41.473 39.485,41.473 C44.299,41.473 47.862,39.894 48.402,38.430 C48.646,37.777 49.378,37.440 50.035,37.683 C50.693,37.925 51.032,38.651 50.799,39.294 C50.268,40.736 48.816,41.947 46.610,42.800 C44.606,43.579 42.083,44.000 39.485,44.000 C34.035,44.000 29.540,42.242 28.299,39.609 C28.002,38.978 28.278,38.220 28.914,37.925 Z"/>
</svg>