<svg
        xmlns="http://www.w3.org/2000/svg"
        width="46px" height="46px">
    <path fill-rule="evenodd" fill="rgb(218, 223, 230)"
          d="M44.810,2.382 L42.102,2.382 L42.122,44.765 C42.122,45.196 41.884,45.598 41.497,45.804 C41.319,45.892 41.120,45.941 40.932,45.941 C40.704,45.941 40.476,45.873 40.277,45.745 L35.091,42.334 L29.923,45.735 C29.527,46.000 29.001,46.000 28.604,45.735 L23.417,42.324 L18.250,45.726 C17.854,45.990 17.328,45.990 16.931,45.726 L11.744,42.314 L6.577,45.716 C6.210,45.961 5.744,45.980 5.357,45.775 C4.971,45.569 4.733,45.167 4.733,44.735 L4.733,2.352 L2.164,2.352 C1.509,2.352 0.974,1.823 0.974,1.176 C0.974,0.529 1.509,-0.000 2.164,-0.000 L44.810,-0.000 C45.464,-0.000 46.000,0.559 46.000,1.206 C46.000,1.853 45.464,2.382 44.810,2.382 ZM39.742,2.343 L7.113,2.343 L7.113,42.530 L11.090,39.913 C11.487,39.648 12.012,39.648 12.409,39.913 L17.596,43.314 L22.763,39.913 C23.160,39.648 23.685,39.648 24.082,39.913 L29.269,43.324 L34.436,39.913 C34.833,39.648 35.358,39.648 35.755,39.913 L39.752,42.540 L39.742,2.343 ZM34.396,32.415 L31.282,32.415 C30.618,32.415 30.092,31.885 30.092,31.238 C30.092,30.591 30.628,30.062 31.282,30.062 L34.396,30.062 C35.051,30.062 35.586,30.591 35.586,31.238 C35.586,31.885 35.051,32.415 34.396,32.415 ZM34.396,28.337 L31.282,28.337 C30.618,28.337 30.092,27.808 30.092,27.161 C30.092,26.514 30.628,25.985 31.282,25.985 L34.396,25.985 C35.051,25.985 35.586,26.514 35.586,27.161 C35.586,27.808 35.051,28.337 34.396,28.337 ZM34.396,22.868 L31.282,22.868 C30.618,22.868 30.092,22.338 30.092,21.691 C30.092,21.045 30.628,20.515 31.282,20.515 L34.396,20.515 C35.051,20.515 35.586,21.045 35.586,21.691 C35.586,22.338 35.051,22.868 34.396,22.868 ZM34.396,18.780 L31.282,18.780 C30.618,18.780 30.092,18.251 30.092,17.604 C30.092,16.957 30.628,16.428 31.282,16.428 L34.396,16.428 C35.051,16.428 35.586,16.957 35.586,17.604 C35.586,18.251 35.051,18.780 34.396,18.780 ZM34.396,13.419 L31.282,13.419 C30.618,13.419 30.092,12.889 30.092,12.242 C30.092,11.595 30.628,11.066 31.282,11.066 L34.396,11.066 C35.051,11.066 35.586,11.595 35.586,12.242 C35.586,12.889 35.051,13.419 34.396,13.419 ZM34.396,9.341 L31.282,9.341 C30.618,9.341 30.092,8.812 30.092,8.165 C30.092,7.518 30.628,6.989 31.282,6.989 L34.396,6.989 C35.051,6.989 35.586,7.518 35.586,8.165 C35.586,8.812 35.051,9.341 34.396,9.341 ZM25.054,28.337 L12.587,28.337 C11.923,28.337 11.397,27.808 11.397,27.161 C11.397,26.514 11.933,25.985 12.587,25.985 L25.054,25.985 C25.708,25.985 26.244,26.514 26.244,27.161 C26.244,27.808 25.708,28.337 25.054,28.337 ZM12.587,20.515 L21.930,20.515 C22.584,20.515 23.120,21.045 23.120,21.691 C23.120,22.338 22.584,22.868 21.930,22.868 L12.587,22.868 C11.923,22.868 11.397,22.338 11.397,21.691 C11.397,21.045 11.933,20.515 12.587,20.515 ZM25.054,18.780 L12.587,18.780 C11.923,18.780 11.397,18.251 11.397,17.604 C11.397,16.957 11.933,16.428 12.587,16.428 L25.054,16.428 C25.708,16.428 26.244,16.957 26.244,17.604 C26.244,18.251 25.708,18.780 25.054,18.780 ZM12.587,11.066 L21.930,11.066 C22.584,11.066 23.120,11.595 23.120,12.242 C23.120,12.889 22.584,13.419 21.930,13.419 L12.587,13.419 C11.923,13.419 11.397,12.889 11.397,12.242 C11.397,11.595 11.933,11.066 12.587,11.066 ZM25.054,9.341 L12.587,9.341 C11.923,9.341 11.397,8.812 11.397,8.165 C11.397,7.518 11.933,6.989 12.587,6.989 L25.054,6.989 C25.708,6.989 26.244,7.518 26.244,8.165 C26.244,8.812 25.708,9.341 25.054,9.341 ZM12.587,30.062 L21.930,30.062 C22.584,30.062 23.120,30.591 23.120,31.238 C23.120,31.885 22.584,32.415 21.930,32.415 L12.587,32.415 C11.923,32.415 11.397,31.885 11.397,31.238 C11.397,30.591 11.933,30.062 12.587,30.062 Z"/>
</svg>