<svg
        xmlns="http://www.w3.org/2000/svg"
        width="49px" height="44px">
    <path fill-rule="evenodd" opacity="0.4" fill="rgb(255, 255, 255)"
          d="M49.000,34.820 L49.000,36.859 C49.000,40.796 45.809,43.990 41.897,44.000 L7.113,44.000 C3.191,44.000 -0.000,40.796 -0.000,36.859 L-0.000,34.830 C-0.000,32.380 1.240,30.210 3.121,28.925 C1.240,27.639 -0.000,25.470 -0.000,23.019 L-0.000,20.981 C-0.000,18.530 1.240,16.361 3.121,15.075 C1.240,13.790 -0.000,11.620 -0.000,9.170 L-0.000,7.131 C-0.000,3.194 3.191,0.000 7.113,0.000 L41.887,0.000 C45.809,0.000 49.000,3.194 49.000,7.131 L49.000,9.160 C49.000,11.610 47.759,13.780 45.879,15.065 C47.759,16.351 49.000,18.520 49.000,20.971 L49.000,23.009 C49.000,25.460 47.759,27.629 45.879,28.915 C47.759,30.200 49.000,32.370 49.000,34.820 ZM46.559,9.170 L46.559,7.131 C46.559,4.560 44.468,2.461 41.897,2.461 L7.113,2.461 C4.542,2.461 2.451,4.550 2.451,7.131 L2.451,9.170 C2.451,11.741 4.542,13.840 7.113,13.850 L41.897,13.850 C44.468,13.850 46.559,11.751 46.559,9.170 ZM46.559,23.009 L46.559,20.971 C46.559,18.389 44.468,16.290 41.897,16.290 L7.113,16.290 C4.542,16.290 2.451,18.389 2.451,20.971 L2.451,23.009 C2.451,25.590 4.542,27.690 7.113,27.690 L41.897,27.690 C44.468,27.690 46.559,25.590 46.559,23.009 ZM41.897,30.150 L7.113,30.150 C4.542,30.150 2.451,32.239 2.451,34.820 L2.451,36.859 C2.451,39.440 4.542,41.529 7.113,41.539 L41.897,41.539 C44.468,41.539 46.559,39.440 46.559,36.859 L46.559,34.820 C46.559,32.249 44.468,30.150 41.897,30.150 ZM37.935,37.080 L24.010,37.080 C23.329,37.080 22.779,36.528 22.779,35.845 C22.779,35.162 23.329,34.609 24.010,34.609 L37.935,34.609 C38.616,34.609 39.166,35.162 39.166,35.845 C39.166,36.528 38.616,37.080 37.935,37.080 ZM12.645,37.432 C11.772,37.432 11.064,36.721 11.064,35.845 C11.064,34.968 11.772,34.258 12.645,34.258 C13.518,34.258 14.226,34.968 14.226,35.845 C14.226,36.721 13.518,37.432 12.645,37.432 ZM37.935,23.240 L24.010,23.240 C23.329,23.240 22.779,22.688 22.779,22.005 C22.779,21.322 23.329,20.770 24.010,20.770 L37.935,20.770 C38.616,20.770 39.166,21.322 39.166,22.005 C39.166,22.688 38.616,23.240 37.935,23.240 ZM12.645,23.582 C11.772,23.582 11.064,22.871 11.064,21.995 C11.064,21.119 11.772,20.408 12.645,20.408 C13.518,20.408 14.226,21.119 14.226,21.995 C14.226,22.871 13.518,23.582 12.645,23.582 ZM37.935,9.391 L24.010,9.391 C23.329,9.391 22.779,8.838 22.779,8.155 C22.779,7.472 23.329,6.920 24.010,6.920 L37.935,6.920 C38.616,6.920 39.166,7.472 39.166,8.155 C39.166,8.838 38.616,9.391 37.935,9.391 ZM12.645,9.732 C11.772,9.732 11.064,9.022 11.064,8.145 C11.064,7.269 11.772,6.558 12.645,6.558 C13.518,6.558 14.226,7.269 14.226,8.145 C14.226,9.022 13.518,9.732 12.645,9.732 Z"/>
</svg>