<svg
        xmlns="http://www.w3.org/2000/svg"
        width="44px" height="46px">
    <path fill-rule="evenodd" fill="rgb(218, 223, 230)"
          d="M42.204,35.929 L3.040,35.929 C2.358,35.929 1.800,35.377 1.800,34.703 C1.800,34.029 2.358,33.478 3.040,33.478 L42.204,33.478 C42.896,33.478 43.444,34.029 43.444,34.703 C43.444,35.377 42.886,35.929 42.204,35.929 ZM42.204,25.858 L3.040,25.858 C2.358,25.858 1.800,25.306 1.800,24.632 C1.800,23.958 2.358,23.407 3.040,23.407 L42.204,23.407 C42.896,23.407 43.444,23.958 43.444,24.632 C43.444,25.306 42.886,25.858 42.204,25.858 ZM42.204,15.787 L18.846,15.787 C18.164,15.787 17.606,15.235 17.606,14.561 C17.606,13.887 18.164,13.336 18.846,13.336 L42.204,13.336 C42.896,13.336 43.444,13.887 43.444,14.561 C43.444,15.235 42.886,15.787 42.204,15.787 ZM42.204,5.716 L18.846,5.716 C18.164,5.716 17.606,5.164 17.606,4.490 C17.606,3.816 18.164,3.265 18.846,3.265 L42.204,3.265 C42.886,3.265 43.444,3.816 43.444,4.490 C43.444,5.164 42.886,5.716 42.204,5.716 ZM5.385,9.321 L8.278,9.321 C10.716,9.321 12.689,11.283 12.689,13.683 C12.689,16.073 10.747,18.014 8.340,18.044 C8.329,18.044 8.319,18.044 8.309,18.044 L8.071,18.044 L8.071,19.842 C8.071,20.516 7.513,21.068 6.831,21.068 C6.150,21.068 5.592,20.516 5.592,19.842 L5.592,18.044 L3.081,18.044 C2.399,18.044 1.842,17.493 1.842,16.819 C1.842,16.144 2.399,15.593 3.081,15.593 L8.278,15.593 C9.342,15.593 10.209,14.735 10.209,13.683 C10.209,12.631 9.342,11.773 8.278,11.773 L5.385,11.773 C2.957,11.773 0.984,9.812 0.974,7.411 C0.974,5.001 2.957,3.050 5.385,3.050 L5.592,3.050 L5.592,1.283 C5.592,0.609 6.150,0.057 6.831,0.057 C7.513,0.057 8.071,0.609 8.071,1.283 L8.071,3.050 L10.489,3.050 C11.170,3.050 11.728,3.602 11.728,4.276 C11.728,4.950 11.170,5.501 10.489,5.501 L5.385,5.501 C4.321,5.501 3.453,6.359 3.453,7.411 C3.453,8.464 4.321,9.321 5.385,9.321 ZM3.040,43.549 L42.204,43.549 C42.896,43.549 43.444,44.100 43.444,44.774 C43.444,45.448 42.886,46.000 42.204,46.000 L3.040,46.000 C2.358,46.000 1.800,45.448 1.800,44.774 C1.800,44.100 2.358,43.549 3.040,43.549 Z"/>
</svg>