<svg
        xmlns="http://www.w3.org/2000/svg"
        width="51px" height="44px">
    <path fill-rule="evenodd" opacity="0.4" fill="rgb(255, 255, 255)"
          d="M48.155,31.236 L46.942,31.236 L46.942,38.575 C46.942,41.561 44.526,44.000 41.545,44.000 L3.640,44.000 C1.632,44.000 -0.000,42.360 -0.000,40.341 L-0.000,4.447 C-0.000,4.426 -0.000,4.405 -0.000,4.384 C0.031,1.956 2.008,0.000 4.424,0.000 L36.786,0.000 C38.794,0.000 40.425,1.640 40.425,3.659 L40.415,6.382 L41.534,6.382 C44.505,6.382 46.931,8.811 46.931,11.807 L46.931,19.135 L48.145,19.135 C49.713,19.135 50.990,20.418 51.000,21.995 L51.000,28.377 C51.000,29.954 49.724,31.236 48.155,31.236 ZM36.786,2.523 L4.424,2.523 C3.368,2.523 2.510,3.396 2.510,4.458 C2.510,5.520 3.368,6.382 4.424,6.382 L37.905,6.382 L37.915,3.648 C37.915,3.028 37.403,2.523 36.786,2.523 ZM44.421,11.807 C44.421,10.209 43.124,8.905 41.534,8.905 L4.424,8.905 C3.734,8.905 3.085,8.747 2.500,8.464 L2.500,40.331 C2.500,40.961 3.012,41.466 3.629,41.466 L41.534,41.466 C43.124,41.466 44.421,40.162 44.421,38.564 L44.421,31.236 L35.855,31.236 C34.286,31.236 33.010,29.954 33.010,28.377 L33.010,21.995 C33.010,20.418 34.286,19.135 35.855,19.135 L44.421,19.135 L44.421,11.807 ZM48.479,21.995 C48.479,21.805 48.322,21.658 48.145,21.658 L35.865,21.658 C35.677,21.658 35.530,21.816 35.530,21.995 L35.530,28.377 C35.530,28.566 35.677,28.713 35.865,28.713 L48.145,28.713 C48.333,28.713 48.479,28.566 48.479,28.377 L48.479,21.995 ZM16.054,30.897 C15.792,31.149 15.465,31.281 15.127,31.281 C14.789,31.281 14.450,31.149 14.200,30.897 L9.628,26.302 C9.116,25.786 9.116,24.953 9.628,24.437 C10.141,23.922 10.970,23.922 11.483,24.437 L15.127,28.100 L23.898,19.283 C24.411,18.767 25.240,18.767 25.742,19.294 C26.255,19.809 26.255,20.643 25.742,21.158 L16.054,30.897 Z"/>
</svg>