<svg
        xmlns="http://www.w3.org/2000/svg"
        width="52px" height="44px">
    <path fill-rule="evenodd" opacity="0.4" fill="rgb(255, 255, 255)"
          d="M49.089,19.135 L47.851,19.135 L47.851,11.807 C47.851,8.811 45.377,6.382 42.349,6.382 L41.207,6.382 L41.218,3.659 C41.218,1.640 39.555,0.000 37.507,0.000 L4.511,0.000 C2.047,0.000 0.032,1.956 -0.000,4.384 C-0.000,4.405 -0.000,4.426 -0.000,4.447 L-0.000,40.341 C-0.000,42.360 1.664,44.000 3.711,44.000 L42.359,44.000 C45.399,44.000 47.862,41.561 47.862,38.575 L47.862,31.236 L49.099,31.236 C50.699,31.236 52.000,29.954 52.000,28.377 L52.000,21.995 C51.989,20.418 50.688,19.135 49.089,19.135 ZM4.511,2.523 L37.507,2.523 C38.136,2.523 38.659,3.028 38.659,3.648 L38.648,6.382 L4.511,6.382 C3.434,6.382 2.559,5.520 2.559,4.458 C2.559,3.396 3.434,2.523 4.511,2.523 ZM45.292,38.564 C45.292,40.162 43.970,41.466 42.349,41.466 L3.700,41.466 C3.071,41.466 2.549,40.961 2.549,40.331 L2.549,8.464 C3.146,8.747 3.807,8.905 4.511,8.905 L42.349,8.905 C43.970,8.905 45.292,10.209 45.292,11.807 L45.292,19.135 L36.558,19.135 C34.958,19.135 33.657,20.418 33.657,21.995 L33.657,28.377 C33.657,29.954 34.958,31.236 36.558,31.236 L45.292,31.236 L45.292,38.564 L45.292,38.564 ZM49.430,28.377 C49.430,28.566 49.280,28.713 49.089,28.713 L36.568,28.713 C36.377,28.713 36.227,28.566 36.227,28.377 L36.227,21.995 C36.227,21.816 36.377,21.658 36.568,21.658 L49.089,21.658 C49.270,21.658 49.430,21.805 49.430,21.995 L49.430,28.377 L49.430,28.377 Z"/>
</svg>