<svg
        xmlns="http://www.w3.org/2000/svg"
        width="47px" height="42px">
    <path fill-rule="evenodd" fill="rgb(218, 223, 230)"
          d="M46.007,27.013 L29.204,39.172 C27.591,40.337 25.534,40.833 23.564,40.518 L10.025,38.380 L6.877,40.976 C6.654,41.158 6.394,41.243 6.133,41.243 C5.805,41.243 5.476,41.100 5.244,40.833 C4.829,40.346 4.897,39.621 5.389,39.220 L8.943,36.290 C9.204,36.080 9.542,35.994 9.870,36.042 L23.921,38.256 C25.283,38.466 26.703,38.132 27.823,37.321 L43.573,25.915 C43.554,25.906 43.544,25.896 43.525,25.887 C42.917,25.514 42.212,25.514 41.371,25.887 C38.426,27.175 32.178,30.153 32.110,30.182 C31.541,30.458 30.845,30.220 30.565,29.647 C30.285,29.074 30.527,28.397 31.106,28.120 C31.174,28.091 37.460,25.104 40.435,23.796 C43.583,22.422 45.659,24.340 46.326,25.543 C46.606,26.049 46.461,26.669 46.007,27.013 ZM32.786,11.179 C31.386,11.179 30.053,10.644 29.059,9.652 C27.002,7.619 27.002,4.317 29.059,2.284 C30.053,1.301 31.376,0.756 32.786,0.756 C34.196,0.756 35.519,1.301 36.514,2.284 C38.571,4.317 38.571,7.619 36.514,9.652 C35.519,10.635 34.196,11.179 32.786,11.179 ZM34.892,3.906 C34.331,3.353 33.588,3.047 32.796,3.047 C32.004,3.047 31.261,3.353 30.700,3.906 C29.551,5.042 29.551,6.894 30.700,8.039 C31.261,8.592 32.004,8.898 32.796,8.898 C33.588,8.898 34.332,8.592 34.892,8.039 C36.041,6.903 36.041,5.042 34.892,3.906 ZM29.638,22.269 C28.354,23.529 26.664,24.226 24.858,24.226 C23.052,24.226 21.362,23.529 20.078,22.269 C17.441,19.664 17.441,15.436 20.078,12.830 C21.362,11.570 23.052,10.873 24.858,10.873 C26.664,10.873 28.363,11.570 29.638,12.830 C32.275,15.436 32.275,19.664 29.638,22.269 ZM27.996,14.453 C27.156,13.622 26.046,13.164 24.858,13.164 C23.670,13.164 22.560,13.622 21.719,14.453 C19.991,16.161 19.991,18.948 21.719,20.656 C22.560,21.487 23.670,21.945 24.858,21.945 C26.046,21.945 27.156,21.487 27.996,20.656 C29.725,18.948 29.725,16.161 27.996,14.453 ZM27.369,28.788 C27.514,30.287 26.731,32.663 23.999,33.093 C21.246,33.532 17.007,33.274 16.823,33.264 C16.186,33.226 15.703,32.682 15.742,32.052 C15.780,31.422 16.331,30.945 16.968,30.983 C17.007,30.983 21.140,31.231 23.631,30.840 C24.307,30.735 24.723,30.430 24.926,29.886 C24.945,29.838 24.964,29.781 24.974,29.733 L17.393,27.461 C14.235,26.517 10.536,28.263 10.170,28.454 L1.758,33.465 C1.565,33.570 1.362,33.627 1.160,33.627 C0.764,33.627 0.387,33.427 0.165,33.074 C-0.164,32.529 0.010,31.823 0.561,31.499 L9.011,26.450 C9.030,26.431 9.059,26.421 9.078,26.412 C9.271,26.316 13.868,24.006 18.059,25.257 L26.548,27.795 C27.002,27.929 27.321,28.320 27.369,28.788 Z"/>
</svg>