<svg width="1067" height="232" viewBox="0 0 1067 232" fill="none" xmlns="http://www.w3.org/2000/svg">
<g clip-path="url(#clip0)">
<path fill-rule="evenodd" clip-rule="evenodd" d="M43.1819 0.24751C43.0855 0.615894 43.0803 0.616418 34.9657 1.04805C27.4301 1.44892 27.487 1.44512 23.5724 1.83524C22.8161 1.91067 21.4018 2.02762 20.4294 2.09532C17.4242 2.30433 15.6103 2.50653 13.3577 2.8833C12.5354 3.02093 11.5916 3.13408 9.10156 3.39364C7.8957 3.51936 7.06569 3.66485 6.02406 3.93318C5.4722 4.0754 4.82029 4.1659 2.54399 4.41616C1.87073 4.49028 1.46908 4.61639 1.07359 4.87818C0.774353 5.07618 0.410291 5.23831 0.264666 5.23831H0V92.98V180.722L0.360134 180.724C0.558273 180.725 0.985457 180.823 1.30958 180.941C1.6337 181.06 2.22301 181.202 2.61915 181.257C3.0153 181.312 3.58994 181.42 3.89599 181.497C4.20204 181.575 4.70309 181.702 5.00913 181.781C5.55627 181.921 6.43723 182.053 8.3813 182.288C8.9215 182.353 9.65813 182.468 10.0183 182.542C11.7705 182.905 12.1981 182.976 13.2922 183.09C15.7982 183.351 18.1171 183.629 19.7746 183.867C21.4183 184.103 23.3335 184.256 29.5964 184.649C30.7129 184.719 32.4219 184.839 33.3942 184.915C36.914 185.19 49.2172 185.567 54.7403 185.57C59.8569 185.572 67.949 185.244 70.7827 184.92C72.3889 184.736 74.2031 184.539 75.6936 184.388C79.3523 184.018 79.2514 184.032 81.3902 183.59C81.7504 183.515 82.487 183.402 83.0272 183.338C84.3389 183.182 85.4666 182.997 86.1047 182.833C87.4183 182.495 87.8551 182.396 88.5274 182.289C90.0349 182.048 91.2964 181.769 92.0633 181.505C92.4949 181.357 92.8945 181.271 94.3878 181.003C94.7299 180.942 95.2456 180.801 95.5337 180.69C96.803 180.2 97.7015 179.936 98.0985 179.936C98.2745 179.936 98.7417 179.812 99.1368 179.66C99.5319 179.508 100.194 179.272 100.608 179.136C101.022 179 101.7 178.777 102.114 178.64C102.528 178.504 103.191 178.268 103.586 178.117C103.981 177.965 104.41 177.841 104.539 177.841C104.668 177.841 105.111 177.675 105.523 177.472C105.935 177.27 106.714 176.963 107.254 176.79C107.795 176.618 108.443 176.344 108.695 176.181C108.947 176.019 109.507 175.773 109.939 175.635C110.667 175.402 112.384 174.643 113.147 174.215C113.328 174.115 113.799 173.881 114.195 173.697C115.597 173.044 118.227 171.635 118.438 171.424C118.51 171.352 118.646 171.293 118.741 171.293C118.836 171.293 119.31 171.037 119.795 170.724C120.28 170.411 121.149 169.861 121.725 169.501C123.57 168.35 124.971 167.439 125.118 167.294C125.197 167.217 125.644 166.896 126.112 166.581C126.58 166.266 126.993 165.972 127.029 165.927C127.065 165.882 127.301 165.704 127.553 165.531C127.805 165.357 128.041 165.181 128.077 165.138C128.113 165.095 128.348 164.918 128.6 164.745C128.853 164.572 129.147 164.336 129.255 164.221C129.363 164.106 129.658 163.87 129.91 163.695C130.162 163.521 130.575 163.168 130.827 162.911C131.079 162.655 131.491 162.299 131.743 162.122C132.342 161.701 138.393 155.649 138.811 155.054C138.988 154.802 139.284 154.448 139.47 154.268C139.656 154.088 139.95 153.735 140.124 153.482C140.298 153.23 140.534 152.936 140.649 152.828C140.763 152.72 140.999 152.425 141.172 152.173C141.346 151.921 141.522 151.685 141.565 151.649C141.608 151.613 141.787 151.377 141.962 151.125C142.137 150.873 142.414 150.531 142.578 150.366C142.742 150.2 142.992 149.838 143.133 149.561C143.275 149.284 143.469 148.977 143.566 148.88C143.8 148.643 145.01 146.84 145.266 146.345C145.378 146.129 145.598 145.805 145.757 145.625C145.915 145.445 146.216 144.973 146.425 144.577C146.635 144.181 147.101 143.356 147.459 142.744C149.004 140.111 152.222 133.279 153.074 130.827C153.457 129.722 153.778 128.771 154.254 127.324C154.391 126.909 154.626 126.247 154.778 125.852C154.93 125.457 155.054 124.996 155.054 124.828C155.054 124.659 155.209 124.069 155.398 123.516C155.814 122.303 155.937 121.797 156.349 119.597C156.413 119.255 156.537 118.769 156.623 118.517C156.932 117.619 157.108 116.737 157.408 114.588C157.474 114.12 157.592 113.413 157.672 113.017C158.036 111.2 158.274 109.422 158.461 107.123C158.529 106.295 158.646 104.999 158.721 104.242C159.074 100.713 159.134 98.9997 159.134 92.5871C159.134 86.2029 159.088 84.8844 158.721 80.8009C158.647 79.9726 158.53 78.6172 158.461 77.7889C158.221 74.9023 158.034 73.4391 157.672 71.6339C157.592 71.2377 157.474 70.5306 157.408 70.0624C157.128 68.0559 157.059 67.697 156.611 65.9372C156.463 65.3549 156.3 64.5666 156.124 63.58C156.06 63.2198 155.847 62.4243 155.651 61.8121C155.455 61.1998 155.24 60.478 155.174 60.2078C154.863 58.9366 154.766 58.5754 154.639 58.2107C154.333 57.334 154.015 56.3446 153.86 55.788C153.771 55.4639 153.531 54.8615 153.328 54.4495C153.125 54.0374 152.959 53.5945 152.959 53.4653C152.959 53.2009 152.619 52.2483 152.176 51.27C152.013 50.9098 151.645 50.0848 151.357 49.4365C150.517 47.5398 148.53 43.4901 147.953 42.4958C146.617 40.1956 144.837 37.2831 144.711 37.192C144.661 37.156 144.248 36.5667 143.792 35.8824C143.336 35.1982 142.925 34.6089 142.88 34.5728C142.834 34.5368 142.655 34.3011 142.482 34.049C142.309 33.7969 142.132 33.5612 142.089 33.5252C142.046 33.4892 141.869 33.2534 141.696 33.0013C141.523 32.7493 141.287 32.4546 141.172 32.3466C141.058 32.2385 140.821 31.9439 140.646 31.6918C140.471 31.4397 140.06 30.9682 139.732 30.6441C139.404 30.32 138.99 29.8485 138.812 29.5964C138.391 28.9988 133.125 23.7331 132.529 23.3141C132.277 23.1367 131.865 22.7814 131.613 22.5247C131.36 22.2681 130.948 21.9153 130.696 21.7409C130.444 21.5666 130.149 21.33 130.041 21.2152C129.933 21.1003 129.638 20.8646 129.386 20.6915C129.134 20.5182 128.898 20.3398 128.862 20.2949C128.826 20.25 128.414 19.9569 127.946 19.6437C127.478 19.3304 127.065 19.0373 127.029 18.9924C126.993 18.9475 126.757 18.7682 126.505 18.594C126.253 18.4197 125.967 18.1997 125.87 18.1049C125.772 18.0101 125.477 17.8223 125.215 17.6875C124.952 17.5528 124.573 17.3003 124.372 17.1264C124.029 16.8304 122.4 15.835 120.285 14.6293C119.78 14.342 119.044 13.9158 118.648 13.6822C118.252 13.4487 117.574 13.0756 117.142 12.853C116.71 12.6305 116.209 12.3665 116.029 12.2664C115.562 12.007 112.708 10.7089 109.546 9.3179C109.042 9.09619 108.099 8.73043 107.451 8.50518C106.803 8.27993 105.653 7.87187 104.897 7.5983C102.9 6.87594 102.794 6.84058 102.147 6.67727C101.823 6.59556 100.84 6.29723 99.9625 6.0145C99.0852 5.73163 98.2349 5.50022 98.0729 5.50022C97.7606 5.50022 97.612 5.45989 95.8611 4.89965C95.2488 4.70387 94.4238 4.4963 94.0277 4.43855C92.8562 4.26778 92.0277 4.09872 91.5395 3.93096C90.6339 3.61967 89.6668 3.42743 87.6107 3.1498C87.1426 3.08667 86.4943 2.96711 86.1702 2.88434C84.8509 2.54713 84.0535 2.42455 81.0628 2.09912C80.4506 2.03259 79.5666 1.91395 79.0985 1.83563C76.9711 1.47982 76.443 1.42102 72.0268 1.04766C66.632 0.591667 66.6515 0.594548 66.5602 0.245677C66.498 0.00772651 66.1295 0 54.8713 0C43.5833 0 43.2447 0.00720267 43.1819 0.24751ZM65.2824 35.3461C69.6263 35.6946 74.0432 36.179 74.9078 36.4018C75.5837 36.576 76.4906 36.7588 77.527 36.9301C79.4012 37.2398 80.5347 37.5013 80.9319 37.7158C81.2627 37.8945 81.8195 38.0398 82.8962 38.2283C83.2204 38.2851 83.7213 38.4225 84.0094 38.5338C85.712 39.1912 85.9921 39.2873 86.2054 39.2873C86.3349 39.2873 86.7413 39.4396 87.1086 39.6257C87.4758 39.8118 88.1075 40.0699 88.512 40.1993C89.5037 40.5165 91.5943 41.5067 93.2746 42.4552C93.7608 42.7295 94.5705 43.185 95.074 43.4672C95.5774 43.7494 96.0845 44.0755 96.2008 44.1918C96.3171 44.3081 96.6388 44.5188 96.9157 44.6601C97.1925 44.8014 97.5547 45.0512 97.7205 45.2153C97.8862 45.3793 98.2281 45.6567 98.4802 45.8318C98.7323 46.0068 98.968 46.1851 99.004 46.2281C99.0401 46.271 99.2758 46.4497 99.5279 46.6251C99.78 46.8005 100.174 47.1312 100.404 47.3599C100.634 47.5889 100.998 47.8797 101.213 48.0064C101.427 48.1331 101.678 48.3779 101.77 48.5504C101.863 48.7227 102.103 48.9612 102.305 49.0802C102.506 49.1992 102.671 49.3362 102.671 49.3847C102.671 49.4331 102.921 49.7395 103.227 50.0655C104.658 51.589 104.994 51.9681 105.289 52.3892C105.462 52.6379 105.64 52.8709 105.683 52.9069C105.726 52.9429 105.903 53.1787 106.076 53.4308C106.249 53.6829 106.486 53.9775 106.603 54.0855C106.851 54.3143 108.039 56.0654 108.336 56.6392C108.448 56.8553 108.692 57.2089 108.879 57.425C109.066 57.641 109.218 57.9062 109.219 58.0143C109.219 58.1223 109.44 58.5719 109.71 59.0134C110.155 59.7413 110.521 60.4802 112.115 63.8766C112.395 64.4718 112.624 65.0776 112.624 65.2226C112.624 65.3677 112.79 65.8235 112.993 66.2357C113.196 66.6477 113.436 67.2501 113.526 67.5742C113.615 67.8983 113.744 68.3445 113.811 68.5657C113.878 68.7869 113.933 69.0697 113.933 69.1943C113.933 69.3187 114.032 69.6091 114.152 69.8398C114.364 70.2465 114.481 70.67 114.719 71.8958C114.83 72.4651 114.994 73.1636 115.243 74.1221C115.586 75.4437 115.669 75.8332 115.778 76.643C115.982 78.1518 116.145 79.2609 116.292 80.1461C116.794 83.1693 116.96 86.2685 116.961 92.5871C116.962 98.9154 116.832 101.229 116.295 104.472C116.221 104.922 116.098 105.658 116.024 106.109C115.949 106.559 115.835 107.31 115.77 107.778C115.597 109.014 115.424 109.876 115.245 110.397C115.065 110.92 114.885 111.638 114.719 112.493C114.487 113.687 114.366 114.139 114.175 114.523C114.068 114.739 113.91 115.166 113.826 115.472C113.741 115.778 113.602 116.279 113.517 116.585C113.432 116.891 113.196 117.479 112.993 117.891C112.79 118.303 112.624 118.759 112.624 118.904C112.624 119.049 112.381 119.684 112.084 120.315C110.509 123.665 110.205 124.284 109.751 125.065C108.392 127.406 107.867 128.279 107.784 128.339C107.734 128.375 107.437 128.787 107.123 129.255C106.81 129.723 106.517 130.136 106.472 130.172C106.427 130.208 106.249 130.444 106.076 130.696C105.903 130.948 105.726 131.184 105.683 131.22C105.64 131.256 105.463 131.491 105.289 131.743C105.115 131.996 104.821 132.349 104.635 132.529C104.45 132.709 104.153 133.063 103.976 133.315C103.557 133.913 99.5976 137.871 99.004 138.286C98.752 138.462 98.4573 138.702 98.3493 138.818C98.2412 138.935 97.7698 139.287 97.3016 139.6C96.8334 139.914 96.4209 140.209 96.3849 140.257C96.2854 140.387 94.4086 141.63 93.9622 141.861C93.7461 141.973 93.3925 142.217 93.1764 142.404C92.9604 142.591 92.6952 142.745 92.5871 142.746C92.4791 142.747 91.9487 143.015 91.4085 143.34C90.8683 143.666 90.2878 143.967 90.1184 144.01C89.9491 144.053 89.4879 144.283 89.0934 144.52C88.6991 144.758 88.0421 145.054 87.6334 145.179C87.2248 145.304 86.6151 145.543 86.2785 145.709C85.9418 145.876 85.0873 146.213 84.3796 146.458C83.6718 146.703 82.9159 146.965 82.6998 147.042C82.4837 147.118 82.0712 147.238 81.7831 147.309C81.495 147.379 80.7584 147.597 80.1461 147.793C79.5339 147.989 78.7383 148.202 78.3782 148.267C77.0269 148.508 76.5322 148.617 74.8751 149.041C74.276 149.195 73.1438 149.36 71.372 149.554C70.7597 149.621 69.8168 149.738 69.2766 149.815C65.2442 150.386 63.1457 150.488 55.3951 150.485C48.2385 150.482 42.9898 150.338 42.3648 150.127C42.1487 150.054 41.8394 149.798 41.6773 149.558L41.3826 149.122V92.8475V36.573L41.7162 36.2394C41.965 35.9905 42.239 35.8856 42.7966 35.8256C45.3234 35.5538 46.3945 35.469 48.3457 35.386C49.5464 35.3349 50.5739 35.2478 50.6289 35.1925C50.7702 35.0504 63.225 35.181 65.2824 35.3461ZM387.452 42.5263C387.397 42.5816 386.488 42.6669 385.431 42.7162C383.513 42.8055 382.317 42.9395 380.956 43.2172C380.56 43.2982 379.794 43.4167 379.254 43.4809C377.478 43.6914 375.596 44.0324 374.932 44.2637C374.489 44.4181 374.026 44.5192 372.64 44.7638C372.28 44.8274 371.75 44.9704 371.462 45.0814C370.623 45.405 370.189 45.5479 369.595 45.6961C368.367 46.003 367.898 46.158 367.286 46.4591C366.935 46.6322 366.309 46.8818 365.896 47.0138C365.483 47.1458 364.857 47.3977 364.505 47.5734C364.154 47.7493 363.719 47.9286 363.539 47.972C363.359 48.0155 362.865 48.2596 362.442 48.5146C362.02 48.7696 361.611 48.9782 361.534 48.9782C361.404 48.9782 360.479 49.4961 358.89 50.4581C357.149 51.512 356.527 51.9044 356.467 51.9862C356.431 52.0353 356.018 52.3318 355.55 52.645C355.082 52.9583 354.67 53.2513 354.634 53.2963C354.598 53.3412 354.362 53.5201 354.11 53.694C353.858 53.8678 353.504 54.1618 353.324 54.3475C353.144 54.5332 352.79 54.8296 352.538 55.0064C351.944 55.4234 349.031 58.3364 348.614 58.931C348.437 59.1831 348.139 59.5367 347.952 59.7167C347.764 59.8968 347.354 60.4272 347.04 60.8953C346.726 61.3635 346.428 61.776 346.379 61.8121C346.195 61.9464 344.298 65.1994 343.651 66.4901C342.898 67.9916 342.44 69.2064 341.465 72.2887C340.944 73.9366 340.84 74.4266 340.486 76.9049C340.416 77.391 340.293 78.2162 340.212 78.7383C340.022 79.9566 340.021 88.5708 340.21 90.1644C340.287 90.8126 340.411 91.7703 340.485 92.2925C340.56 92.8146 340.675 93.6398 340.741 94.1259C340.874 95.1107 341.009 95.7139 341.337 96.7778C341.458 97.1739 341.616 97.7338 341.688 98.0219C342.022 99.3739 341.994 99.2995 343.4 102.474C344.029 103.896 344.229 104.297 344.898 105.486C345.524 106.599 347.523 109.601 347.819 109.874C347.937 109.982 348.177 110.276 348.353 110.528C348.769 111.124 352.467 114.821 353.062 115.237C353.314 115.414 353.609 115.652 353.717 115.767C353.825 115.881 354.12 116.117 354.372 116.29C354.624 116.464 354.859 116.64 354.895 116.683C354.931 116.726 355.167 116.903 355.419 117.076C355.671 117.249 355.907 117.428 355.943 117.473C356.058 117.618 357.938 118.836 358.955 119.425C359.495 119.738 360.261 120.185 360.658 120.418C361.054 120.652 361.702 121.005 362.098 121.203C362.494 121.4 362.966 121.664 363.146 121.788C363.326 121.913 363.621 122.05 363.801 122.094C363.981 122.137 364.454 122.37 364.852 122.61C365.25 122.85 365.903 123.149 366.302 123.275C366.701 123.4 367.23 123.637 367.477 123.802C367.724 123.966 368.254 124.202 368.656 124.326C369.057 124.449 369.587 124.684 369.834 124.848C370.081 125.011 370.548 125.226 370.872 125.325C371.196 125.424 371.869 125.706 372.366 125.952C372.864 126.197 373.609 126.506 374.021 126.638C374.434 126.77 375.021 127.005 375.325 127.16C375.629 127.315 376.218 127.551 376.634 127.684C377.051 127.817 377.628 128.046 377.917 128.194C378.578 128.531 379.508 128.858 379.814 128.86C379.943 128.861 380.349 129.015 380.716 129.201C381.083 129.387 381.723 129.648 382.137 129.78C382.552 129.912 383.14 130.148 383.444 130.303C383.748 130.458 384.33 130.692 384.736 130.822C385.142 130.952 385.798 131.205 386.194 131.385C387.723 132.08 388.17 132.267 388.3 132.267C388.374 132.267 388.648 132.412 388.909 132.59C389.17 132.767 389.712 133.013 390.114 133.136C390.515 133.259 391.009 133.474 391.21 133.613C391.412 133.752 391.871 133.974 392.23 134.105C392.59 134.236 393.161 134.509 393.501 134.711C393.84 134.913 394.307 135.145 394.539 135.227C394.77 135.309 395.883 135.929 397.012 136.605C398.68 137.603 399.288 138.054 400.261 139.012C400.919 139.66 401.601 140.397 401.777 140.649C401.953 140.901 402.173 141.185 402.266 141.281C402.622 141.647 402.885 142.32 403.121 143.464C403.297 144.321 403.293 146.693 403.114 147.524C403.037 147.884 402.921 148.416 402.857 148.707C402.704 149.402 401.616 151.181 400.957 151.815C400.669 152.091 400.132 152.47 399.763 152.657C399.395 152.843 398.95 153.09 398.775 153.205C398.354 153.481 396.823 153.998 396.409 154.005C396.229 154.008 395.816 154.106 395.492 154.224C393.792 154.842 392.006 154.952 383.706 154.948C376.502 154.944 373.746 154.848 371.953 154.54C369.92 154.19 369.315 154.097 366.845 153.752C365.567 153.573 364.716 153.403 364.193 153.221C363.73 153.059 363.019 152.91 361.705 152.701C360.863 152.566 360.12 152.39 359.479 152.173C358.951 151.994 358.227 151.813 357.384 151.649C356.158 151.411 355.734 151.294 355.328 151.082C355.097 150.962 354.807 150.863 354.682 150.863C354.558 150.863 354.275 150.809 354.054 150.742C352.954 150.41 349.281 149.257 348.937 149.136C348.721 149.06 347.788 148.738 346.864 148.421C345.94 148.104 344.896 147.699 344.544 147.521C344.192 147.342 343.762 147.196 343.59 147.196C343.204 147.196 342.645 147.733 342.529 148.215C342.481 148.411 342.383 148.807 342.31 149.095C342.151 149.717 341.964 150.657 341.8 151.649C341.734 152.045 341.623 152.664 341.552 153.024C341.431 153.639 341.353 153.972 341.004 155.349C340.926 155.655 340.811 156.229 340.748 156.625C340.597 157.574 340.407 158.532 340.242 159.179C339.885 160.584 339.807 160.937 339.694 161.635C339.628 162.049 339.519 162.727 339.452 163.141C339.386 163.555 339.271 164.129 339.197 164.417C338.784 166.019 338.606 166.85 338.399 168.15C338.336 168.546 338.22 169.12 338.143 169.427C337.794 170.803 337.716 171.136 337.595 171.751C337.524 172.111 337.413 172.73 337.347 173.126C337.118 174.511 336.982 175.16 336.823 175.614C336.68 176.024 336.583 176.468 336.349 177.779C336.293 178.092 336.353 178.251 336.634 178.532C336.83 178.728 337.072 178.888 337.172 178.888C337.273 178.888 337.692 179.054 338.104 179.257C338.516 179.459 339.295 179.758 339.835 179.92C340.376 180.082 340.994 180.277 341.21 180.352C342.247 180.712 343.097 180.979 343.633 181.114C343.957 181.195 344.399 181.323 344.615 181.399C346.413 182.026 347.328 182.293 347.681 182.293C347.844 182.293 348.547 182.475 349.243 182.697C351.129 183.298 351.287 183.341 351.608 183.341C351.77 183.341 352.355 183.496 352.908 183.685C354.041 184.074 354.64 184.226 355.681 184.393C356.653 184.548 357.589 184.734 358.3 184.914C358.995 185.09 360.07 185.269 361.476 185.442C363.685 185.714 364.561 185.827 365.503 185.962C369.278 186.501 372.644 186.631 382.789 186.632C392.796 186.634 396.528 186.479 399.028 185.961C399.424 185.879 400.19 185.758 400.731 185.693C401.76 185.569 403.009 185.396 404.332 185.195C404.764 185.129 405.324 185.003 405.576 184.914C405.828 184.825 406.3 184.702 406.624 184.64C409.062 184.175 409.345 184.107 410.576 183.685C411.128 183.496 411.719 183.341 411.887 183.341C412.055 183.341 412.516 183.217 412.912 183.065C413.792 182.727 414.875 182.365 415.66 182.147C415.984 182.057 416.573 181.828 416.969 181.638C417.366 181.448 417.955 181.21 418.279 181.108C418.603 181.006 419.191 180.728 419.586 180.492C419.981 180.255 420.511 180.003 420.765 179.931C421.018 179.86 421.547 179.597 421.94 179.345C422.333 179.094 422.736 178.888 422.836 178.888C422.937 178.888 423.175 178.778 423.366 178.643C423.557 178.508 424.008 178.249 424.369 178.067C424.729 177.885 425.171 177.606 425.351 177.448C425.531 177.29 425.893 177.05 426.156 176.915C426.418 176.781 426.713 176.592 426.81 176.495C426.908 176.399 427.371 176.062 427.839 175.747C428.307 175.432 428.779 175.079 428.887 174.963C428.995 174.846 429.288 174.608 429.538 174.433C430.495 173.763 433.845 170.413 434.515 169.456C434.69 169.206 434.928 168.913 435.045 168.805C435.315 168.556 436.393 166.932 437.11 165.694C437.413 165.172 437.896 164.343 438.185 163.853C438.473 163.362 438.708 162.89 438.708 162.802C438.708 162.715 438.933 162.188 439.208 161.632C439.483 161.075 439.773 160.384 439.852 160.096C439.932 159.808 440.156 159.071 440.351 158.459C440.722 157.291 440.868 156.725 441.078 155.643C441.199 155.017 441.285 154.592 441.599 153.057C441.918 151.499 442.009 149.778 442.008 145.363C442.007 140.871 441.904 138.889 441.594 137.375C441.513 136.979 441.39 136.315 441.322 135.901C441.253 135.487 441.14 134.809 441.072 134.395C440.796 132.736 440.695 132.288 440.353 131.22C440.157 130.607 439.932 129.871 439.853 129.583C439.773 129.295 439.553 128.735 439.363 128.339C439.173 127.942 438.935 127.353 438.834 127.029C438.733 126.705 438.495 126.175 438.304 125.85C438.114 125.526 437.703 124.819 437.39 124.279C436.66 123.018 435.58 121.388 435.307 121.136C435.19 121.028 434.952 120.733 434.779 120.481C434.605 120.229 434.311 119.875 434.125 119.695C433.939 119.515 433.643 119.162 433.466 118.91C433.05 118.317 430.92 116.186 430.327 115.771C430.075 115.594 429.721 115.298 429.541 115.112C429.361 114.926 429.008 114.632 428.756 114.458C428.504 114.284 428.268 114.107 428.232 114.064C428.196 114.021 427.96 113.844 427.708 113.671C427.456 113.498 427.22 113.319 427.184 113.273C427.095 113.159 423.26 110.603 422.42 110.099C421.683 109.655 419.857 108.644 418.934 108.168C418.61 108.001 418.197 107.784 418.017 107.685C417.837 107.586 417.366 107.353 416.969 107.166C416.573 106.979 416.102 106.743 415.922 106.642C415.742 106.541 415.3 106.32 414.94 106.152C414.328 105.866 413.747 105.605 410.651 104.227C409.984 103.931 408.997 103.482 408.457 103.229C407.917 102.977 407.143 102.664 406.737 102.535C406.331 102.404 405.749 102.171 405.445 102.016C405.141 101.861 404.552 101.625 404.136 101.492C403.72 101.359 403.134 101.125 402.834 100.973C402.534 100.82 401.766 100.524 401.126 100.315C400.487 100.106 399.667 99.784 399.304 99.6002C398.941 99.4164 398.523 99.266 398.375 99.266C398.227 99.266 397.637 99.0302 397.064 98.7421C396.491 98.454 395.901 98.2183 395.754 98.2183C395.606 98.2183 395.065 98.0067 394.552 97.7479C394.038 97.4891 393.283 97.1705 392.873 97.0397C392.464 96.9089 391.708 96.5902 391.195 96.3315C390.681 96.0727 390.182 95.8611 390.087 95.8611C389.991 95.8611 389.649 95.694 389.327 95.4898C389.005 95.2856 388.596 95.0815 388.417 95.0362C388.239 94.991 387.651 94.6875 387.111 94.362C386.571 94.0364 386.055 93.7691 385.964 93.768C385.873 93.7668 385.401 93.5097 384.916 93.1967C384.431 92.8839 383.536 92.3092 382.927 91.9199C381.559 91.0448 380.227 89.7495 379.559 88.6449C378.726 87.2689 378.559 86.504 378.559 84.0749C378.559 81.6421 378.726 80.8813 379.564 79.4963C380.19 78.461 381.451 77.2196 382.48 76.6246C382.902 76.3803 383.513 76.0252 383.837 75.8353C384.161 75.6452 384.662 75.4226 384.95 75.3405C385.238 75.2584 385.975 75.03 386.587 74.8331C388.801 74.121 390.761 73.9652 397.457 73.9691C403.648 73.9728 407.519 74.1831 409.734 74.6362C411.171 74.9301 411.819 75.0545 412.517 75.1697C414.099 75.4311 415.298 75.6984 416.053 75.9577C416.482 76.1053 416.829 76.1805 418.377 76.4611C418.719 76.5232 419.5 76.7343 420.112 76.9302C420.725 77.1261 421.461 77.345 421.749 77.4163C422.038 77.4878 422.991 77.7776 423.868 78.0604C424.746 78.3432 425.616 78.5746 425.803 78.5746C425.99 78.5746 426.62 78.8148 427.204 79.1084C427.894 79.4553 428.367 79.6168 428.555 79.5697C429.014 79.4544 429.502 79.0051 429.597 78.6104C429.645 78.4107 429.745 78.0115 429.819 77.7234C429.893 77.4353 430.006 76.8755 430.069 76.4793C430.277 75.1755 430.427 74.4559 430.587 73.9911C430.857 73.2045 431.151 71.8678 431.365 70.4553C431.424 70.0591 431.545 69.5287 431.633 69.2766C431.813 68.7578 431.989 68.0589 432.169 67.1486C432.236 66.8064 432.347 66.2467 432.414 65.9045C432.594 64.9942 432.77 64.2953 432.95 63.7764C433.038 63.5243 433.159 62.9939 433.218 62.5978C433.432 61.1853 433.726 59.8486 433.996 59.0619C434.156 58.5972 434.306 57.8776 434.514 56.5737C434.65 55.7225 434.827 54.9796 435.044 54.3475C435.131 54.0954 435.254 53.6093 435.318 53.2671C435.382 52.9249 435.498 52.3356 435.576 51.9575C435.654 51.5794 435.747 50.9122 435.783 50.4749C435.841 49.7639 435.815 49.6483 435.537 49.3808C435.366 49.2161 434.846 48.9473 434.381 48.7832C433.916 48.6191 433.359 48.4227 433.143 48.3467C432.927 48.2708 432.485 48.1411 432.161 48.0587C430.923 47.7442 430.511 47.6158 430.131 47.4269C429.747 47.2361 429.295 47.1151 428.101 46.8829C427.258 46.7189 426.533 46.5379 426.006 46.359C425.353 46.1381 424.611 45.9634 423.779 45.8352C423.383 45.7742 422.809 45.6608 422.502 45.5832C422.196 45.5057 421.695 45.3807 421.389 45.3054C421.083 45.2301 420.597 45.1071 420.309 45.032C420.021 44.957 419.402 44.8439 418.934 44.7807C417.52 44.5898 416.543 44.4227 415.922 44.2655C414.589 43.9282 413.881 43.8192 410.814 43.4797C410.202 43.4118 409.259 43.2932 408.719 43.2161C406.979 42.9675 405.427 42.814 403.284 42.6787C400.688 42.5148 387.589 42.3887 387.452 42.5263ZM190.413 45.9601C190.305 46.0332 190.056 46.094 189.859 46.0952C189.042 46.0997 189.097 42.8648 189.158 87.3104C189.213 126.617 189.242 129.524 189.624 132.922C189.701 133.606 189.82 134.785 189.889 135.541C190.178 138.734 190.391 140.333 190.676 141.434C190.76 141.758 190.88 142.407 190.943 142.875C191.221 144.931 191.413 145.898 191.724 146.804C191.872 147.234 191.951 147.598 192.227 149.128C192.289 149.47 192.55 150.398 192.806 151.191C193.062 151.983 193.347 152.896 193.438 153.221C193.529 153.545 193.769 154.147 193.972 154.559C194.175 154.971 194.341 155.427 194.341 155.572C194.341 155.717 194.584 156.352 194.881 156.984C196.456 160.334 196.76 160.952 197.214 161.733C198.579 164.084 199.098 164.947 199.182 165.007C199.233 165.043 199.648 165.632 200.104 166.316C200.561 167.001 201.03 167.649 201.147 167.757C201.264 167.865 201.502 168.16 201.676 168.412C201.85 168.664 202.144 169.017 202.33 169.197C202.515 169.377 202.812 169.731 202.989 169.983C203.405 170.577 205.796 172.968 206.389 173.384C206.641 173.561 206.995 173.857 207.175 174.043C207.355 174.229 207.709 174.523 207.961 174.696C208.213 174.87 208.449 175.048 208.485 175.09C208.521 175.133 208.756 175.31 209.009 175.483C209.261 175.656 209.496 175.835 209.532 175.881C209.765 176.175 213.382 178.447 214.705 179.13C215.137 179.353 215.638 179.618 215.818 179.718C216.105 179.877 217.529 180.538 219.682 181.511C220.663 181.955 221.613 182.293 221.878 182.293C222.007 182.293 222.42 182.45 222.796 182.642C223.172 182.834 223.686 183.037 223.938 183.094C224.19 183.151 224.646 183.26 224.953 183.335C225.259 183.41 225.73 183.52 226 183.58C226.27 183.639 226.639 183.768 226.819 183.867C226.999 183.965 227.426 184.094 227.768 184.152C228.364 184.253 229.081 184.39 230.355 184.646C230.679 184.712 231.209 184.832 231.533 184.914C232.616 185.188 233.657 185.33 237.295 185.698C237.98 185.767 239.099 185.887 239.784 185.964C244.657 186.51 255.773 186.51 262.832 185.963C263.805 185.888 265.396 185.769 266.368 185.698C271.622 185.317 272.817 185.207 274.848 184.917C275.37 184.842 276.224 184.72 276.746 184.646C277.269 184.571 278.197 184.455 278.809 184.388C280.311 184.225 281.62 184.038 282.41 183.876C284.124 183.525 284.575 183.446 285.488 183.338C287.054 183.152 288.791 182.846 289.94 182.552C290.265 182.469 290.913 182.349 291.381 182.286C292.773 182.098 293.771 181.929 294.328 181.785C295.929 181.373 296.76 181.195 298.06 180.988C298.911 180.852 299.654 180.675 300.286 180.458C300.538 180.371 301.01 180.249 301.334 180.188C303.87 179.704 304.223 179.62 304.608 179.41C304.788 179.311 305.23 179.181 305.59 179.12C305.95 179.058 306.436 178.975 306.67 178.934C307.198 178.842 307.594 178.443 307.829 177.768C308.097 176.996 308.098 47.7346 307.83 46.9483C307.602 46.2803 306.916 45.7717 306.441 45.9182C306.261 45.9738 298.335 46.0391 288.827 46.0635C275.691 46.0971 271.424 46.0703 271.053 45.9515C270.353 45.7276 269.421 46.0349 269.02 46.6213L268.725 47.0526V99.1366V151.22L268.395 151.551C268.024 151.921 267.752 152.01 266.434 152.189C263.787 152.548 261.269 152.75 256.743 152.966C253.202 153.135 250.622 153.138 248.492 152.974C245.572 152.749 244.625 152.583 242.904 151.993C242.351 151.804 241.805 151.649 241.69 151.649C241.183 151.649 237.429 149.597 236.903 149.032C236.795 148.916 236.5 148.677 236.248 148.502C235.664 148.096 235.087 147.518 234.68 146.935C234.505 146.682 234.264 146.388 234.146 146.28C233.517 145.707 231.819 142.454 231.268 140.769C231.059 140.129 230.797 139.431 230.687 139.217C230.576 139.003 230.486 138.667 230.486 138.471C230.486 138.274 230.43 137.933 230.363 137.711C230.295 137.49 230.141 136.985 230.021 136.589C229.596 135.198 229.525 134.81 229.178 132.005C229.111 131.465 228.993 130.64 228.914 130.172C228.619 128.41 228.499 127.146 228.374 124.475C228.299 122.883 228.22 105.897 228.186 84.1275C228.131 48.5488 228.115 46.5196 227.899 46.3406C227.468 45.984 226.702 45.7976 226.318 45.9558C225.927 46.117 191.892 46.0801 191.067 45.9174C190.811 45.8669 190.523 45.8856 190.413 45.9601ZM474.069 46.1081C473.818 46.2644 473.54 46.4879 473.451 46.6048C473.241 46.8809 473.317 127.265 473.531 130.761C473.788 134.959 474.038 137.526 474.328 138.946C474.409 139.342 474.531 140.079 474.601 140.583C474.873 142.564 474.974 143.228 475.099 143.857C475.221 144.472 475.301 144.811 475.648 146.182C475.726 146.488 475.839 147.062 475.9 147.458C475.961 147.855 476.068 148.414 476.136 148.703C476.352 149.606 477.497 153.14 477.981 154.397C478.133 154.792 478.258 155.219 478.258 155.345C478.258 155.471 478.486 156.061 478.766 156.656C479.046 157.252 479.561 158.352 479.912 159.102C480.263 159.852 480.741 160.788 480.975 161.181C481.209 161.574 481.401 161.948 481.401 162.012C481.401 162.076 481.657 162.526 481.97 163.011C482.283 163.497 482.856 164.389 483.244 164.995C483.632 165.601 484.013 166.16 484.09 166.239C484.167 166.318 484.488 166.765 484.803 167.233C485.119 167.701 485.472 168.173 485.588 168.281C485.705 168.389 485.944 168.683 486.121 168.935C486.538 169.532 491.019 174.014 491.615 174.43C491.867 174.606 492.103 174.787 492.139 174.832C492.175 174.877 492.588 175.171 493.056 175.486C493.524 175.801 493.971 176.122 494.05 176.199C494.129 176.276 494.688 176.657 495.294 177.045C495.9 177.433 496.792 178.006 497.278 178.319C497.763 178.632 498.234 178.889 498.325 178.89C498.416 178.892 498.933 179.159 499.473 179.485C500.013 179.81 500.602 180.113 500.782 180.158C500.962 180.204 501.316 180.376 501.568 180.542C501.82 180.708 502.388 180.959 502.83 181.1C503.272 181.241 503.871 181.477 504.16 181.625C504.45 181.772 505.266 182.094 505.976 182.339C506.685 182.585 507.442 182.848 507.658 182.924C507.874 183 508.286 183.121 508.574 183.191C508.862 183.262 509.599 183.479 510.211 183.673C511.51 184.086 512.103 184.234 513.092 184.393C514.064 184.548 515 184.734 515.712 184.914C516.502 185.114 517.625 185.292 519.051 185.445C519.699 185.514 520.731 185.628 521.343 185.698C521.955 185.768 523.016 185.888 523.7 185.965C528.547 186.507 539.745 186.506 546.749 185.963C547.721 185.888 549.312 185.769 550.284 185.698C555.822 185.297 557.643 185.132 558.928 184.915C560.166 184.707 561.459 184.527 562.725 184.387C565.374 184.093 565.967 184.012 566.523 183.867C567.265 183.674 568.532 183.47 571.336 183.09C571.822 183.025 572.485 182.903 572.809 182.82C573.493 182.645 574.396 182.464 575.461 182.287C575.875 182.218 576.553 182.106 576.967 182.037C578.405 181.799 579.032 181.666 579.488 181.506C579.74 181.417 580.285 181.292 580.699 181.229C583.03 180.874 583.475 180.783 584.726 180.401C585.122 180.28 585.628 180.126 585.849 180.059C586.07 179.991 586.443 179.936 586.679 179.936C586.914 179.936 587.676 179.754 588.372 179.533C590.22 178.944 590.416 178.889 590.694 178.884C591.034 178.878 591.317 178.647 591.65 178.1L591.928 177.644L591.928 112.216L591.929 46.7877L591.598 46.4569C591.101 45.9598 590.549 45.7657 590.149 45.9478C589.678 46.1625 555.522 46.161 554.928 45.9464C554.326 45.7287 553.335 46.0353 553.087 46.5161C552.931 46.8173 552.904 54.607 552.904 98.8731C552.904 155.753 552.964 151.447 552.157 151.749C551.955 151.825 551.673 151.931 551.529 151.985C550.633 152.321 546.699 152.676 540.659 152.965C535.943 153.191 533.471 153.134 529.92 152.715C528.658 152.566 528.135 152.444 526.82 151.993C526.267 151.804 525.707 151.649 525.576 151.649C525.444 151.649 524.954 151.413 524.486 151.125C524.018 150.837 523.546 150.601 523.438 150.601C523.219 150.6 522.456 150.162 522.161 149.867C522.056 149.762 521.743 149.56 521.465 149.418C520.918 149.139 518.852 147.154 518.335 146.411C518.159 146.159 517.977 145.923 517.93 145.887C517.658 145.679 515.973 142.628 515.973 142.343C515.973 142.262 515.867 142.039 515.736 141.847C515.605 141.656 515.429 141.249 515.343 140.943C515.258 140.637 515.118 140.136 515.033 139.83C514.949 139.524 514.791 139.097 514.684 138.881C514.493 138.497 514.372 138.045 514.14 136.851C514.033 136.297 513.953 135.963 513.606 134.592C513.352 133.589 513.081 131.666 512.825 129.059C512.755 128.339 512.635 127.16 512.561 126.44C512.486 125.719 512.365 123.893 512.292 122.38C512.14 119.199 512.085 49.1243 512.235 48.1795C512.368 47.3369 512.076 46.5134 511.504 46.1208C511.175 45.8945 510.979 45.8431 510.735 45.9186C510.327 46.0453 475.612 46.0432 474.984 45.9164C474.629 45.845 474.422 45.8886 474.069 46.1081Z" fill="#92278F"/>
<path fill-rule="evenodd" clip-rule="evenodd" d="M664.707 0.248951C664.621 0.580536 664.144 0.629776 656.95 1.04976C655.725 1.12113 653.751 1.23637 652.563 1.30578C650.313 1.437 648.392 1.5986 646.277 1.83472C645.593 1.91107 644.296 2.02932 643.396 2.09742C640.382 2.32568 638.884 2.46999 638.026 2.61523C636.464 2.87963 634.27 3.17114 632.133 3.39822C630.991 3.51949 630.156 3.6676 629.121 3.93201C628.532 4.08248 627.566 4.22771 625.716 4.44353C623.843 4.66223 623.243 4.88931 622.606 5.62031L622.312 5.95858L622.312 94.1666L622.312 182.375L622.577 182.66C623.072 183.191 623.591 183.373 624.324 183.27C625.202 183.148 660.542 183.148 661.419 183.27C662.233 183.384 662.793 183.143 663.176 182.516C663.427 182.104 663.431 181.632 663.432 153.507C663.432 135.869 663.385 124.828 663.309 124.686C663.15 124.39 663.43 123.55 663.822 123.142L664.111 122.843L671.465 122.779C684.096 122.67 694.052 122.201 698.005 121.529C698.473 121.449 699.357 121.33 699.969 121.263C702.856 120.949 704.377 120.727 705.339 120.481C705.663 120.398 706.267 120.276 706.681 120.209C709.402 119.772 710.15 119.628 710.708 119.433C710.96 119.346 711.446 119.221 711.788 119.157C713.988 118.745 714.494 118.622 715.707 118.206C716.26 118.017 716.845 117.862 717.008 117.862C717.289 117.862 717.767 117.739 718.631 117.444C718.847 117.37 719.348 117.203 719.744 117.073C722.351 116.215 722.897 116.029 723.54 115.781C723.935 115.629 724.38 115.505 724.529 115.505C724.678 115.505 725.062 115.342 725.382 115.144C725.703 114.945 726.2 114.706 726.488 114.614C727.214 114.38 730.983 112.714 732.251 112.067C734.248 111.047 738.112 108.811 738.434 108.489C738.541 108.381 738.853 108.179 739.126 108.04C739.399 107.901 739.702 107.709 739.8 107.615C739.897 107.52 740.183 107.3 740.435 107.125C740.687 106.951 740.923 106.774 740.959 106.731C740.995 106.688 741.231 106.511 741.483 106.338C741.735 106.165 741.971 105.988 742.007 105.945C742.043 105.902 742.279 105.724 742.531 105.549C742.783 105.375 743.254 104.963 743.578 104.635C743.903 104.307 744.374 103.893 744.626 103.716C745.22 103.298 747.35 101.168 747.766 100.576C747.943 100.323 748.298 99.9109 748.555 99.6588C748.811 99.4067 749.164 98.9942 749.338 98.7421C749.513 98.49 749.69 98.2543 749.733 98.2183C749.776 98.1823 749.953 97.9466 750.126 97.6945C750.299 97.4424 750.476 97.2067 750.519 97.1706C750.562 97.1346 750.739 96.8989 750.912 96.6468C751.085 96.3947 751.265 96.159 751.312 96.123C751.36 96.087 751.633 95.6744 751.919 95.2063C754.117 91.6174 754.299 91.2757 755.867 87.8072C756.674 86.0226 757.175 84.5577 758.648 79.6785C758.715 79.4573 758.77 79.0742 758.771 78.8273C758.773 78.5803 758.869 78.113 758.985 77.7889C759.359 76.7507 759.447 76.2779 759.817 73.3363C759.885 72.7961 760.003 71.9122 760.08 71.372C760.458 68.7103 760.5 67.6783 760.5 61.1573C760.5 54.6362 760.458 53.6043 760.08 50.9426C760.003 50.4024 759.886 49.5184 759.819 48.9782C759.652 47.622 759.469 46.5209 759.309 45.9007C758.926 44.4143 758.782 43.7572 758.527 42.3321C758.466 41.9899 758.325 41.4743 758.214 41.1862C757.769 40.0342 757.46 39.0211 757.46 38.7177C757.46 38.5947 757.294 38.1569 757.091 37.7448C756.889 37.3328 756.583 36.5536 756.411 36.0134C756.24 35.4732 755.994 34.8748 755.863 34.6836C755.733 34.4924 755.627 34.2705 755.627 34.1904C755.627 33.7324 752.075 27.3105 751.432 26.6069C751.322 26.4865 751.089 26.1817 750.915 25.9296C750.74 25.6775 750.562 25.4418 750.519 25.4058C750.476 25.3698 750.299 25.1341 750.126 24.882C749.953 24.6299 749.717 24.3352 749.602 24.2272C749.488 24.1191 749.25 23.8245 749.076 23.5724C748.901 23.3203 748.431 22.7899 748.031 22.3938C747.631 21.9976 747.159 21.4672 746.982 21.2152C746.569 20.6278 745.736 19.7954 745.15 19.3836C744.898 19.2065 744.426 18.7931 744.102 18.465C743.778 18.137 743.307 17.7257 743.055 17.551C742.802 17.3763 742.508 17.138 742.4 17.0215C742.292 16.9049 741.82 16.5529 741.352 16.2393C740.884 15.9258 740.471 15.6305 740.435 15.5832C740.399 15.536 739.928 15.2047 739.388 14.8471C738.463 14.2348 737.726 13.7931 735.623 12.5903C735.137 12.3121 734.267 11.8094 733.691 11.4728C733.115 11.1363 732.498 10.8237 732.319 10.7781C732.141 10.7326 731.732 10.5282 731.41 10.3241C731.088 10.1199 730.746 9.95279 730.651 9.95279C730.556 9.95279 729.891 9.65813 729.173 9.298C728.455 8.93787 727.748 8.64321 727.601 8.64321C727.454 8.64321 726.865 8.40749 726.292 8.11938C725.719 7.83127 725.146 7.59463 725.018 7.59358C724.697 7.59097 723.779 7.26069 723.013 6.87266C722.66 6.69404 722.207 6.54789 722.006 6.54789C721.804 6.54789 721.316 6.42374 720.921 6.27196C719.959 5.9024 718.877 5.54632 718.238 5.38878C717.95 5.3178 717.213 5.09936 716.601 4.90345C715.989 4.70754 715.193 4.4946 714.833 4.43017C713.228 4.14337 712.19 3.90503 711.494 3.66276C711.048 3.50796 710.368 3.38683 708.613 3.1498C708.144 3.08667 707.496 2.96711 707.172 2.88434C705.905 2.56035 704.518 2.33471 702.327 2.09532C701.245 1.9772 700.223 1.84087 698.332 1.56272C697.463 1.43464 696.491 1.34035 693.029 1.04766C687.634 0.591667 687.653 0.594548 687.562 0.245677C687.5 0.00785747 687.137 0 676.135 0C665.081 0 664.771 0.00680981 664.707 0.248951ZM686.546 35.3454C687.483 35.4196 688.809 35.5425 689.493 35.6184C690.177 35.6944 691.297 35.8131 691.981 35.8824C692.665 35.9517 693.756 36.0622 694.404 36.1281C695.052 36.194 695.818 36.3103 696.106 36.3866C697.295 36.7012 697.845 36.8247 698.529 36.9301C698.925 36.9911 699.485 37.0971 699.773 37.1654C700.73 37.3925 704.089 38.5474 704.422 38.7638C704.602 38.8808 705.015 39.0575 705.339 39.1564C705.663 39.2552 706.075 39.4356 706.255 39.5572C706.436 39.6788 706.995 39.986 707.5 40.2398C708.004 40.4937 708.564 40.8309 708.744 40.9892C708.924 41.1477 709.289 41.3891 709.555 41.5257C709.822 41.6622 710.175 41.9082 710.341 42.0723C710.507 42.2364 710.849 42.516 711.101 42.6935C711.694 43.1118 712.784 44.2032 713.191 44.7875C713.367 45.0396 713.605 45.3343 713.72 45.4423C713.835 45.5504 714.071 45.845 714.244 46.0971C714.417 46.3492 714.597 46.5849 714.644 46.621C714.8 46.74 715.906 48.6347 716.364 49.5675C716.611 50.0717 716.939 50.8967 717.091 51.4009C717.243 51.9051 717.467 52.6417 717.589 53.0379C718.237 55.15 718.333 56.1995 718.333 61.1573C718.333 66.1115 718.238 67.1521 717.59 69.2766C717.469 69.6728 717.315 70.1779 717.248 70.3991C717.18 70.6203 717.125 70.8991 717.125 71.0186C717.125 71.1382 716.955 71.6055 716.748 72.057C716.54 72.5086 716.21 73.2316 716.013 73.6637C715.664 74.4307 714.553 76.3489 714.382 76.4793C714.335 76.5153 714.155 76.7511 713.982 77.0031C713.809 77.2552 713.573 77.5499 713.458 77.6579C713.343 77.766 713.106 78.0606 712.931 78.3127C712.529 78.8914 712.203 79.217 711.625 79.6189C711.373 79.794 711.078 80.0313 710.97 80.1461C710.862 80.261 710.567 80.4967 710.315 80.6698C710.063 80.8431 709.826 81.0284 709.788 81.0818C709.694 81.2153 707.789 82.2961 706.91 82.7146C704.597 83.8165 703.999 84.0749 703.761 84.0749C703.616 84.0749 703.189 84.2319 702.813 84.4237C702.438 84.6155 701.909 84.8217 701.639 84.8821C701.369 84.9423 700.898 85.0533 700.592 85.1286C700.285 85.2039 699.829 85.3114 699.577 85.3675C699.324 85.4236 698.971 85.5501 698.791 85.6487C698.483 85.8171 698.225 85.8742 696.434 86.1702C696.037 86.2357 695.419 86.3489 695.059 86.4219C691.537 87.1357 691.567 87.1322 683.927 87.752C682.991 87.828 678.365 87.9304 673.647 87.9796C668.929 88.0289 665.006 88.1101 664.93 88.1601C664.767 88.2664 663.951 88.009 663.644 87.7543C663.45 87.5937 663.432 85.4446 663.432 62.6387C663.432 47.2858 663.385 37.61 663.309 37.4681C663.147 37.1655 663.444 36.2894 663.775 36.094C664.093 35.9061 667.048 35.6475 671.803 35.3913C672.806 35.3372 673.671 35.2477 673.727 35.1921C673.865 35.0528 684.453 35.1792 686.546 35.3454ZM829.828 42.5264C829.773 42.5816 828.745 42.6673 827.545 42.7171C826.344 42.7667 824.875 42.8699 824.281 42.9463C821.263 43.3342 820.795 43.3862 817.209 43.7322C816.507 43.7999 815.564 43.9177 815.114 43.9941C812.67 44.4083 811.631 44.5641 809.843 44.7855C808.453 44.9573 807.384 45.1363 806.7 45.3114C806.376 45.3944 805.772 45.5167 805.358 45.5832C802.525 46.0383 801.9 46.1597 801.069 46.4156C800.673 46.5377 800.168 46.6927 799.946 46.7602C799.725 46.8276 799.346 46.8829 799.104 46.8829C798.634 46.8829 798.539 46.9075 796.595 47.5272C795.899 47.749 795.196 47.9305 795.033 47.9305C794.87 47.9305 794.555 47.9855 794.334 48.0526C794.113 48.1198 793.666 48.2495 793.342 48.3411C792.155 48.6763 791.322 49.5156 791.576 50.1217C791.859 50.7998 792.208 52.7242 792.554 55.5261C792.727 56.9252 792.906 57.9889 793.082 58.6691C793.229 59.2386 793.346 60.0026 793.602 62.074C793.775 63.4731 793.954 64.5368 794.13 65.217C794.277 65.7865 794.394 66.5505 794.65 68.6219C794.786 69.7202 794.962 70.8205 795.176 71.8958C795.389 72.9711 795.566 74.0714 795.702 75.1697C796.098 78.3752 796.224 78.9923 796.581 79.4727C796.992 80.0257 797.428 80.0089 799.366 79.3655C799.763 79.2341 800.41 79.0023 800.805 78.8506C801.2 78.6988 801.667 78.5746 801.843 78.5746C802.019 78.5746 802.344 78.5194 802.566 78.4519C802.787 78.3845 803.292 78.2304 803.688 78.1096C804.81 77.7675 805.964 77.5121 807.486 77.2691C807.882 77.2059 808.471 77.087 808.795 77.005C810.007 76.6983 811.067 76.5217 813.51 76.2195C814.444 76.104 815.088 76.0037 816.947 75.6837C817.757 75.5445 819.185 75.4259 823.266 75.159C826.018 74.9789 837.687 74.9734 839.374 75.1514C841.258 75.3501 842.437 75.5193 843.074 75.6822C844.35 76.0088 845.639 76.326 846.249 76.4639C846.501 76.5208 847.002 76.7137 847.362 76.8926C847.723 77.0715 848.282 77.2989 848.606 77.398C848.931 77.497 849.531 77.8023 849.942 78.0763C850.352 78.3504 850.768 78.5746 850.866 78.5746C850.965 78.5746 851.16 78.6794 851.299 78.8074C851.439 78.9354 851.759 79.185 852.011 79.3621C852.768 79.8934 855.526 82.7339 855.795 83.2589C855.933 83.5276 856.175 83.8948 856.334 84.0749C856.643 84.426 857.776 86.6076 858.1 87.4762C858.209 87.7663 858.394 88.2541 858.511 88.5602C859.123 90.1518 859.69 93.975 859.818 97.3705C859.879 98.9958 859.868 99.0978 859.576 99.5313C859.21 100.077 858.911 100.139 858.077 99.8465C857.172 99.5289 856.532 99.3872 855.416 99.2569C853.855 99.0748 852.657 98.8995 851.88 98.7399C849.576 98.2661 845.363 98.0723 837.344 98.0712C829.671 98.0702 826.232 98.2328 823.201 98.7399C822.13 98.9191 820.799 99.1082 819.534 99.261C818.499 99.3859 817.629 99.5456 816.653 99.7898C815.933 99.9699 814.991 100.157 814.034 100.31C813.044 100.468 812.451 100.616 811.153 101.029C810.54 101.223 809.804 101.44 809.516 101.511C809.228 101.582 808.815 101.702 808.599 101.778C808.383 101.854 807.626 102.117 806.917 102.363C806.208 102.608 805.391 102.93 805.101 103.077C804.812 103.225 804.238 103.454 803.825 103.586C803.412 103.717 802.654 104.037 802.14 104.296C801.627 104.555 801.135 104.766 801.047 104.766C800.96 104.766 800.487 105.002 799.996 105.29C799.506 105.578 798.707 106.041 798.221 106.319C796.374 107.373 794.977 108.208 794.914 108.296C794.878 108.346 794.465 108.644 793.997 108.957C793.529 109.271 793.057 109.623 792.949 109.74C792.841 109.856 792.547 110.095 792.295 110.271C792.043 110.447 791.473 110.954 791.03 111.396C790.586 111.839 790.049 112.305 789.836 112.43C789.623 112.556 789.346 112.833 789.22 113.046C789.094 113.259 788.629 113.797 788.186 114.24C787.743 114.683 787.237 115.253 787.061 115.505C786.885 115.757 786.644 116.051 786.525 116.16C785.979 116.656 782.712 121.909 782.418 122.765C782.34 122.992 782.185 123.322 782.074 123.499C781.963 123.676 781.731 124.263 781.558 124.803C781.386 125.343 781.08 126.122 780.877 126.534C780.674 126.946 780.508 127.443 780.508 127.638C780.508 127.833 780.453 128.174 780.386 128.395C779.562 131.095 779.597 130.925 779.191 134.166C778.852 136.874 778.783 138.068 778.783 141.172C778.783 143.009 778.847 145.116 778.925 145.854C779.004 146.593 779.125 147.771 779.195 148.473C779.504 151.58 779.617 152.275 779.987 153.352C780.139 153.795 780.241 154.265 780.485 155.643C780.548 156.003 780.691 156.534 780.803 156.822C781.459 158.523 781.556 158.804 781.556 159.012C781.556 159.475 783.419 163.196 784.813 165.514C785.305 166.334 786.28 167.793 786.398 167.888C786.443 167.924 786.621 168.16 786.795 168.412C786.968 168.664 787.203 168.958 787.318 169.066C787.433 169.174 787.671 169.469 787.847 169.721C788.263 170.316 791.176 173.229 791.771 173.645C792.023 173.821 792.318 174.059 792.426 174.174C792.534 174.289 792.828 174.524 793.08 174.697C793.333 174.871 793.568 175.049 793.604 175.094C793.64 175.139 794.053 175.432 794.521 175.745C794.989 176.059 795.402 176.356 795.438 176.406C795.474 176.456 796.034 176.808 796.682 177.188C797.33 177.568 798.247 178.106 798.719 178.384C799.192 178.661 799.663 178.888 799.767 178.888C799.871 178.888 800.339 179.124 800.807 179.412C801.275 179.7 801.733 179.936 801.825 179.936C801.917 179.936 802.4 180.142 802.899 180.393C803.91 180.902 804.812 181.241 805.165 181.244C805.293 181.245 805.748 181.422 806.176 181.638C806.604 181.854 807.055 182.031 807.178 182.031C807.478 182.031 808.461 182.33 809.647 182.783C810.183 182.988 810.771 183.139 811.807 183.341C812.131 183.404 812.632 183.515 812.921 183.589C814.773 184.059 815.527 184.216 816.817 184.396C817.303 184.464 818.098 184.575 818.584 184.643C819.071 184.711 819.793 184.833 820.189 184.914C822.848 185.456 832.639 186.1 838.13 186.092C846.209 186.081 860.656 185.428 864.19 184.915C865.122 184.779 865.835 184.695 868.578 184.393C870.873 184.141 871.859 184.011 872.506 183.878C874.429 183.48 874.68 183.438 877.221 183.089C878.263 182.946 879.18 182.771 880.036 182.552C880.36 182.469 881.024 182.348 881.51 182.282C881.996 182.216 882.791 182.108 883.278 182.043C883.764 181.977 884.427 181.855 884.751 181.773C885.789 181.507 887.388 181.218 889.072 180.99C889.541 180.927 890.174 180.811 890.48 180.733C890.786 180.655 891.287 180.527 891.593 180.45C891.899 180.372 892.489 180.254 892.903 180.188C893.317 180.121 893.995 180.012 894.409 179.946C895.767 179.728 896.799 179.424 896.799 179.242C896.799 179.225 896.915 178.895 897.057 178.507C897.198 178.119 897.272 177.737 897.22 177.658C897.169 177.578 897.089 157.978 897.043 134.101C896.986 104.432 896.915 90.3151 896.818 89.5096C896.741 88.8614 896.614 87.889 896.537 87.3488C896.46 86.8086 896.342 85.8657 896.275 85.2535C896.038 83.0822 895.816 81.7161 895.489 80.4081C895.294 79.6282 895.108 78.6733 894.98 77.7889C894.922 77.3927 894.713 76.5677 894.516 75.9555C894.319 75.3433 894.101 74.6066 894.03 74.3185C893.96 74.0304 893.84 73.6179 893.765 73.4018C893.689 73.1857 893.455 72.508 893.245 71.8958C892.377 69.3737 889.734 64.0265 888.985 63.2772C888.884 63.1766 888.688 62.8708 888.549 62.5978C888.409 62.3248 888.218 62.0215 888.123 61.9239C888.028 61.8263 887.808 61.5403 887.634 61.2882C887.46 61.0361 887.282 60.8004 887.239 60.7644C887.196 60.7284 887.019 60.4927 886.845 60.2406C886.671 59.9885 886.377 59.6349 886.191 59.4548C886.006 59.2747 885.709 58.9212 885.532 58.6691C885.114 58.0726 882.2 55.1598 881.608 54.7457C881.356 54.5696 881.061 54.33 880.953 54.2135C880.845 54.0969 880.374 53.7449 879.905 53.4313C879.437 53.1178 879.025 52.8225 878.989 52.7752C878.883 52.6362 877.035 51.4329 876.042 50.8567C875.538 50.5638 874.654 50.049 874.078 49.7125C873.502 49.3759 872.883 49.0645 872.703 49.0202C872.523 48.9761 872.228 48.8385 872.048 48.7143C871.481 48.3237 870.628 47.9305 870.348 47.9305C870.199 47.9305 869.609 47.6948 869.036 47.4067C868.463 47.1186 867.873 46.8829 867.725 46.8829C867.577 46.8829 867.167 46.7367 866.815 46.5581C865.993 46.1415 865.124 45.8395 864.74 45.8372C864.574 45.8361 863.808 45.6194 863.037 45.3556C862.267 45.0919 861.313 44.8313 860.917 44.7763C860.52 44.7214 859.946 44.6131 859.64 44.5356C859.334 44.4581 858.847 44.3357 858.559 44.2637C858.271 44.1917 857.785 44.0681 857.479 43.9891C857.173 43.9101 856.466 43.7923 855.907 43.7272C853.727 43.4731 852.953 43.3701 850.047 42.9469C849.507 42.8684 848.063 42.7462 846.839 42.6755C844.045 42.5143 829.962 42.3909 829.828 42.5264ZM929.277 46.1246C929.026 46.2946 928.799 46.5446 928.773 46.68C928.727 46.9153 928.872 47.5412 929.168 48.3889C929.517 49.3895 929.795 50.2717 929.931 50.8116C930.067 51.3515 930.345 52.2337 930.695 53.2343C930.77 53.4504 930.899 53.8924 930.981 54.2165C931.063 54.5406 931.361 55.5572 931.644 56.4755C931.926 57.3938 932.393 58.9113 932.681 59.8477C932.969 60.784 933.445 62.3309 933.739 63.2853C934.238 64.9071 934.827 66.731 935.147 67.6397C935.222 67.8558 935.351 68.2977 935.431 68.6219C935.512 68.946 935.641 69.388 935.716 69.604C935.792 69.8201 936.029 70.5273 936.243 71.1755C936.611 72.2918 936.752 72.7168 937.373 74.5804C937.517 75.0126 937.753 75.7198 937.897 76.1519C938.041 76.5841 938.287 77.3207 938.444 77.7889C938.6 78.2571 938.841 78.9789 938.979 79.3931C939.116 79.8073 939.347 80.4997 939.491 80.9319C939.635 81.364 939.866 82.0564 940.003 82.4706C940.141 82.8849 940.435 83.7246 940.656 84.3368C940.878 84.949 941.06 85.5547 941.061 85.6829C941.062 85.811 941.239 86.2659 941.456 86.694C941.672 87.1221 941.848 87.578 941.848 87.7071C941.848 87.8362 941.973 88.2651 942.125 88.6602C942.277 89.0553 942.685 90.1742 943.03 91.1466C943.619 92.8045 943.927 93.6564 945.266 97.3343C945.56 98.1447 946.004 99.3867 946.251 100.095C946.498 100.802 946.846 101.67 947.024 102.022C947.203 102.374 947.349 102.78 947.349 102.925C947.349 103.07 947.46 103.44 947.596 103.748C948.171 105.053 948.307 105.393 948.532 106.094C948.662 106.5 948.896 107.081 949.051 107.385C949.206 107.69 949.442 108.279 949.575 108.695C949.708 109.111 949.937 109.688 950.085 109.978C950.422 110.638 950.749 111.569 950.752 111.874C950.753 112.002 950.965 112.527 951.224 113.04C951.483 113.554 951.802 114.312 951.934 114.725C952.066 115.138 952.301 115.724 952.456 116.029C952.611 116.333 952.847 116.922 952.98 117.338C953.113 117.754 953.348 118.343 953.504 118.648C953.659 118.952 953.892 119.533 954.022 119.939C954.152 120.345 954.465 121.12 954.717 121.66C955.67 123.701 955.898 124.234 956.126 124.946C956.255 125.349 956.562 126.085 956.807 126.583C957.053 127.08 957.334 127.753 957.433 128.077C957.531 128.401 957.706 128.813 957.822 128.993C957.937 129.173 958.105 129.556 958.196 129.845C958.353 130.346 958.899 131.595 959.886 133.708C960.138 134.248 960.457 135.044 960.596 135.476C960.734 135.908 960.978 136.468 961.139 136.72C961.3 136.972 961.507 137.414 961.598 137.702C961.69 137.99 961.998 138.742 962.283 139.372C962.568 140.002 963.037 141.048 963.325 141.696C963.614 142.345 964.085 143.405 964.373 144.054C964.661 144.702 965.139 145.777 965.436 146.443C965.732 147.11 966.262 148.26 966.614 148.999C966.966 149.738 967.254 150.419 967.254 150.512C967.254 150.605 967.418 150.943 967.619 151.263C967.819 151.583 968.068 152.111 968.171 152.435C968.274 152.759 968.522 153.286 968.723 153.606C968.924 153.927 969.088 154.265 969.088 154.358C969.088 154.451 969.389 155.161 969.757 155.936C970.384 157.256 970.531 157.557 971.169 158.819C971.306 159.089 971.726 159.988 972.104 160.816C972.482 161.644 972.873 162.469 972.974 162.65C973.076 162.83 973.251 163.183 973.364 163.435C973.738 164.271 974.182 165.199 974.366 165.531C974.466 165.711 975.794 168.377 977.318 171.457C979.523 175.914 980.088 177.162 980.088 177.577C980.088 177.91 979.904 178.491 979.58 179.181C979.3 179.776 978.784 180.877 978.434 181.627C978.083 182.377 977.605 183.312 977.371 183.706C977.137 184.099 976.945 184.473 976.945 184.537C976.945 184.601 976.689 185.051 976.376 185.536C976.063 186.021 975.49 186.914 975.102 187.52C974.714 188.125 974.334 188.685 974.259 188.764C974.183 188.842 973.978 189.113 973.804 189.365C973.63 189.617 973.452 189.853 973.409 189.889C973.366 189.925 973.187 190.16 973.011 190.413C972.596 191.007 969.682 193.921 969.088 194.336C968.836 194.512 968.6 194.696 968.564 194.745C968.432 194.925 966.001 196.316 965.683 196.394C965.503 196.438 965.031 196.632 964.635 196.825C964.239 197.017 963.65 197.249 963.325 197.339C963.001 197.428 962.555 197.557 962.334 197.624C962.113 197.691 961.789 197.747 961.614 197.748C961.439 197.749 961.03 197.848 960.706 197.969C959.745 198.325 958.243 198.43 954.158 198.427C950.325 198.423 948.079 198.299 946.694 198.013C945.81 197.831 944.677 197.643 943.551 197.491C942.604 197.363 941.999 197.227 940.932 196.902C940.536 196.781 940.03 196.627 939.809 196.559C939.588 196.492 939.264 196.436 939.089 196.435C938.803 196.433 938.221 196.242 935.811 195.358C935.004 195.062 934.536 195.106 934.127 195.515C933.771 195.871 933.55 196.662 933.209 198.794C933.103 199.458 933.021 199.825 932.675 201.184C932.607 201.454 932.487 201.925 932.409 202.231C932.332 202.538 932.219 203.112 932.158 203.508C932.097 203.904 931.983 204.479 931.906 204.785C931.828 205.091 931.706 205.577 931.634 205.866C931.562 206.154 931.439 206.64 931.362 206.946C931.284 207.252 931.169 207.827 931.106 208.223C930.896 209.536 930.748 210.248 930.586 210.711C930.498 210.963 930.374 211.449 930.31 211.791C930.246 212.133 930.134 212.708 930.062 213.068C929.99 213.428 929.876 214.003 929.809 214.345C929.741 214.687 929.623 215.218 929.547 215.524C929.47 215.83 929.345 216.331 929.268 216.637C929.086 217.364 928.898 218.328 928.763 219.223C928.703 219.619 928.582 220.15 928.495 220.402C928.407 220.654 928.278 221.096 928.208 221.384C928.088 221.882 928.013 222.238 927.714 223.741C927.642 224.101 927.546 224.583 927.5 224.813C927.341 225.602 928.384 226.814 929.229 226.82C929.363 226.822 929.944 226.992 930.521 227.2C932.669 227.973 933.191 228.128 933.647 228.128C933.843 228.128 934.189 228.224 934.415 228.341C934.933 228.609 935.465 228.781 936.217 228.924C938.373 229.335 938.916 229.459 939.622 229.702C940.144 229.881 941.005 230.054 942.241 230.227C944.937 230.603 945.401 230.718 945.482 231.028C945.544 231.263 945.942 231.271 956.793 231.271C966.583 231.271 968.04 231.246 968.04 231.08C968.04 230.801 968.524 230.577 969.382 230.459C971.347 230.188 972.811 229.909 973.671 229.641C974.067 229.518 974.598 229.368 974.85 229.308C975.86 229.065 976.506 228.891 976.88 228.761C977.096 228.686 977.773 228.452 978.386 228.241C980.74 227.431 986.288 224.697 986.978 224.007C987.093 223.892 987.411 223.684 987.684 223.545C987.957 223.406 988.26 223.214 988.358 223.119C988.455 223.024 988.741 222.804 988.993 222.63C989.245 222.456 989.481 222.278 989.517 222.235C989.553 222.192 989.789 222.016 990.041 221.842C990.293 221.669 990.588 221.433 990.696 221.319C990.804 221.204 991.098 220.966 991.35 220.79C991.603 220.614 992.234 220.057 992.753 219.552C993.273 219.047 993.892 218.451 994.128 218.228C994.643 217.743 995.079 217.303 995.458 216.886C995.612 216.717 996.209 216.098 996.786 215.511C997.363 214.924 997.98 214.237 998.156 213.985C998.333 213.733 998.629 213.379 998.815 213.199C999.001 213.019 999.295 212.666 999.469 212.413C999.642 212.161 999.82 211.926 999.863 211.89C999.906 211.854 1000.08 211.618 1000.26 211.366C1000.43 211.114 1000.61 210.878 1000.65 210.842C1000.69 210.806 1000.87 210.57 1001.04 210.318C1001.21 210.066 1001.39 209.83 1001.44 209.794C1001.57 209.692 1003.86 206.239 1004.09 205.8C1004.2 205.584 1004.42 205.26 1004.58 205.08C1004.74 204.9 1005.03 204.42 1005.24 204.014C1005.45 203.609 1005.71 203.181 1005.83 203.064C1005.94 202.947 1006.27 202.439 1006.55 201.936C1006.83 201.432 1007.31 200.593 1007.61 200.071C1007.91 199.549 1008.27 198.886 1008.42 198.597C1008.86 197.721 1008.93 197.589 1009.56 196.437C1010.13 195.39 1010.36 194.96 1010.99 193.686C1011.14 193.398 1011.37 192.927 1011.52 192.639C1011.66 192.351 1011.9 191.879 1012.04 191.591C1012.19 191.303 1012.42 190.846 1012.55 190.576C1012.69 190.306 1013.11 189.407 1013.49 188.579C1013.86 187.751 1014.26 186.926 1014.36 186.746C1014.66 186.213 1014.95 185.57 1016.77 181.475C1017.07 180.808 1017.6 179.659 1017.95 178.919C1018.3 178.18 1018.59 177.515 1018.59 177.442C1018.59 177.368 1018.69 177.15 1018.82 176.958C1018.94 176.766 1019.12 176.414 1019.21 176.177C1019.3 175.939 1019.45 175.554 1019.54 175.32C1019.63 175.086 1019.84 174.681 1020 174.421C1020.16 174.16 1020.41 173.571 1020.56 173.111C1020.71 172.651 1020.96 172.069 1021.12 171.817C1021.29 171.564 1021.52 171.03 1021.65 170.628C1021.77 170.227 1022.01 169.697 1022.17 169.45C1022.33 169.203 1022.53 168.765 1022.63 168.477C1022.78 167.975 1023.33 166.718 1024.32 164.614C1024.57 164.074 1024.88 163.308 1025.01 162.911C1025.23 162.211 1025.46 161.674 1026.41 159.637C1026.66 159.097 1026.98 158.302 1027.12 157.87C1027.26 157.437 1027.51 156.878 1027.67 156.625C1027.83 156.373 1028.05 155.902 1028.15 155.578C1028.25 155.254 1028.47 154.701 1028.64 154.349C1028.82 153.997 1029.06 153.373 1029.2 152.961C1029.33 152.548 1029.62 151.841 1029.85 151.387C1030.08 150.934 1030.38 150.225 1030.51 149.811C1030.64 149.397 1030.88 148.81 1031.03 148.506C1031.19 148.202 1031.42 147.613 1031.55 147.196C1031.69 146.78 1031.92 146.191 1032.08 145.887C1032.23 145.583 1032.47 144.993 1032.6 144.577C1032.74 144.161 1032.97 143.572 1033.13 143.268C1033.28 142.964 1033.52 142.374 1033.65 141.958C1033.78 141.542 1034.02 140.953 1034.17 140.649C1034.33 140.344 1034.56 139.755 1034.7 139.339C1034.83 138.923 1035.07 138.334 1035.22 138.029C1035.38 137.725 1035.61 137.136 1035.75 136.72C1035.88 136.304 1036.11 135.718 1036.26 135.418C1036.42 135.119 1036.71 134.349 1036.92 133.708C1037.13 133.067 1037.42 132.309 1037.57 132.024C1037.83 131.518 1038.05 130.937 1038.97 128.293C1039.22 127.584 1039.53 126.78 1039.67 126.505C1040 125.868 1040.32 124.936 1040.33 124.635C1040.33 124.506 1040.48 124.101 1040.67 123.733C1040.85 123.366 1041.11 122.726 1041.25 122.312C1041.38 121.897 1041.61 121.321 1041.76 121.032C1042.09 120.371 1042.42 119.441 1042.42 119.135C1042.42 119.007 1042.59 118.565 1042.79 118.153C1043 117.741 1043.23 117.153 1043.32 116.847C1043.4 116.541 1043.54 116.04 1043.63 115.734C1043.71 115.428 1043.92 114.902 1044.08 114.565C1044.46 113.803 1044.78 112.895 1044.78 112.587C1044.78 112.458 1044.93 112.065 1045.11 111.712C1045.49 110.946 1045.82 110.028 1045.83 109.706C1045.83 109.578 1046.01 109.123 1046.22 108.695C1046.44 108.267 1046.61 107.811 1046.61 107.682C1046.61 107.553 1046.74 107.124 1046.89 106.729C1047.51 105.103 1047.92 103.901 1047.92 103.682C1047.92 103.554 1048.09 103.112 1048.29 102.7C1048.5 102.288 1048.74 101.685 1048.83 101.361C1049.04 100.605 1049.39 99.5466 1050.02 97.8254C1050.49 96.5454 1050.66 96.03 1051.32 94.0604C1051.45 93.6462 1051.75 92.8065 1051.97 92.1942C1052.19 91.582 1052.37 90.9761 1052.38 90.8476C1052.38 90.7191 1052.53 90.3066 1052.73 89.9309C1052.92 89.5552 1053.12 89.0268 1053.18 88.7566C1053.24 88.4866 1053.34 88.0446 1053.4 87.7744C1053.46 87.5044 1053.65 87.0181 1053.82 86.694C1053.99 86.3699 1054.17 85.8985 1054.23 85.6464C1054.28 85.3943 1054.38 84.9523 1054.44 84.6642C1054.51 84.3761 1054.65 83.9636 1054.75 83.7475C1054.86 83.5314 1055.08 82.9126 1055.24 82.3724C1055.41 81.8322 1055.65 81.0661 1055.78 80.67C1055.91 80.2738 1056.14 79.5814 1056.29 79.1312C1056.44 78.6811 1056.69 77.9445 1056.84 77.4942C1056.99 77.0441 1057.22 76.3516 1057.35 75.9555C1057.49 75.5593 1057.84 74.4397 1058.14 73.4673C1058.65 71.8194 1059.23 69.9993 1059.56 69.0802C1059.63 68.8641 1059.76 68.4221 1059.84 68.098C1059.92 67.7739 1060.05 67.3319 1060.13 67.1158C1060.48 66.1097 1060.75 65.2325 1060.89 64.6931C1060.97 64.369 1061.1 63.927 1061.17 63.7109C1061.67 62.2885 1063.03 57.9512 1063.24 57.0976C1063.33 56.7735 1063.45 56.3315 1063.53 56.1154C1063.88 55.1092 1064.16 54.2321 1064.29 53.6927C1064.37 53.3686 1064.5 52.9266 1064.58 52.7105C1064.92 51.7252 1065.2 50.8344 1065.32 50.3533C1065.73 48.7171 1065.82 48.5213 1066.17 48.4785C1066.52 48.4371 1066.52 48.4322 1066.52 47.2809V46.1246L1065.96 46.0402C1065.66 45.9937 1065.26 45.9642 1065.08 45.9745C1064.9 45.9849 1056.65 46.0191 1046.75 46.0505C1033.18 46.0936 1028.62 46.0698 1028.26 45.954C1027.31 45.6513 1026.16 46.2485 1025.98 47.1333C1025.94 47.3197 1025.73 48.0615 1025.51 48.7818C1025.3 49.502 1025.06 50.2723 1025 50.4935C1024.93 50.7147 1024.88 51.0346 1024.88 51.2045C1024.88 51.5396 1024.84 51.6895 1024.23 53.5829C1024.01 54.279 1023.83 54.982 1023.83 55.1451C1023.83 55.4586 1023.79 55.5914 1023.23 57.3595C1023.03 57.9717 1022.83 58.7378 1022.77 59.0619C1022.58 60.1519 1022.43 60.6971 1022.26 61.0263C1022.16 61.2064 1022.03 61.5894 1021.97 61.8775C1021.9 62.1656 1021.79 62.6371 1021.72 62.9252C1021.65 63.2133 1021.54 63.7142 1021.49 64.0383C1021.43 64.3625 1021.32 64.7509 1021.24 64.9015C1020.99 65.3587 1020.69 66.3108 1020.69 66.6482C1020.69 66.8231 1020.63 67.1473 1020.56 67.3685C1019.72 70.1731 1019.64 70.4583 1019.24 72.0595C1019.1 72.5921 1019.05 72.7785 1018.74 73.6637C1018.67 73.8798 1018.55 74.2923 1018.48 74.5804C1018.17 75.8198 1018.03 76.3507 1017.66 77.4827C1017.45 78.1427 1017.28 78.8097 1017.28 78.9652C1017.28 79.1205 1017.05 79.9654 1016.77 80.8427C1016.48 81.7201 1016.18 82.7031 1016.1 83.0272C1016.02 83.3513 1015.78 84.1764 1015.58 84.8606C1015.37 85.5449 1015.14 86.3699 1015.05 86.694C1014.97 87.0181 1014.73 87.8432 1014.53 88.5274C1014.33 89.2117 1014.09 90.0367 1014.01 90.3608C1013.92 90.685 1013.62 91.6679 1013.34 92.5453C1013.06 93.4226 1012.83 94.278 1012.83 94.4461C1012.83 94.6141 1012.72 95.0455 1012.58 95.4045C1012.21 96.3632 1012.08 96.7753 1011.91 97.4326C1011.83 97.7567 1011.53 98.7733 1011.25 99.6916C1010.96 100.61 1010.5 102.113 1010.22 103.031C1009.94 103.949 1009.64 104.966 1009.56 105.29C1009.47 105.614 1009.34 106.056 1009.27 106.272C1008.92 107.278 1008.64 108.156 1008.51 108.695C1008.43 109.019 1008.3 109.461 1008.22 109.677C1007.94 110.494 1007.59 111.578 1006.93 113.671C1006.56 114.86 1006.15 116.171 1006.01 116.585C1005.55 117.958 1005.26 118.831 1004.86 120.023C1004.65 120.671 1004.42 121.378 1004.34 121.594C1004.27 121.81 1004.03 122.518 1003.82 123.166C1003.6 123.814 1003.37 124.521 1003.29 124.737C1003.22 124.953 1002.98 125.66 1002.77 126.309C1002.56 126.957 1002.32 127.664 1002.25 127.88C1002.17 128.096 1001.98 128.656 1001.82 129.124C1000.36 133.477 999.853 134.848 999.6 135.11C999.25 135.474 999.18 135.479 998.896 135.165C998.655 134.899 998.373 134.215 997.683 132.224C997.438 131.517 997.092 130.649 996.913 130.297C996.735 129.945 996.588 129.552 996.587 129.423C996.584 129.122 996.259 128.19 995.934 127.553C995.794 127.278 995.535 126.65 995.36 126.157C995.184 125.664 994.794 124.583 994.494 123.755C994.193 122.927 993.662 121.453 993.315 120.481C992.967 119.509 992.448 118.065 992.16 117.273C991.872 116.48 991.508 115.449 991.352 114.981C990.846 113.468 990.806 113.352 990.565 112.755C990.325 112.159 990.289 112.057 989.777 110.528C989.621 110.06 989.21 108.882 988.865 107.909C988.063 105.65 988.04 105.582 987.578 104.177C987.364 103.529 987.129 102.821 987.054 102.605C986.979 102.389 986.743 101.682 986.53 101.034C986.317 100.386 986.081 99.6785 986.006 99.4624C985.931 99.2463 985.694 98.5391 985.479 97.8909C985.265 97.2427 984.97 96.3587 984.824 95.9265C984.679 95.4944 984.257 94.1684 983.887 92.98C983.516 91.7916 983.152 90.6424 983.077 90.4263C983.002 90.2102 982.834 89.7093 982.704 89.3132C981.942 86.9973 981.675 86.194 981.552 85.8428C981.476 85.6267 981.348 85.1847 981.267 84.8606C981.186 84.5365 981.058 84.0945 980.982 83.8784C980.663 82.9697 980.073 81.1459 979.574 79.5241C979.281 78.5697 978.809 77.0376 978.527 76.1192C978.244 75.2008 977.946 74.1843 977.864 73.8602C977.782 73.536 977.653 73.0941 977.578 72.878C977.232 71.887 976.95 70.9962 976.813 70.4553C976.641 69.7829 976.155 68.1425 975.395 65.6753C975.106 64.739 974.802 63.7077 974.719 63.3835C974.636 63.0594 974.4 62.2344 974.195 61.5501C973.99 60.8659 973.754 60.0408 973.671 59.7167C973.588 59.3926 973.352 58.5676 973.147 57.8833C972.942 57.1991 972.707 56.374 972.625 56.0499C972.542 55.7258 972.42 55.2796 972.353 55.0584C972.286 54.8372 972.231 54.5544 972.231 54.4298C972.231 54.3054 972.132 54.015 972.012 53.7843C971.8 53.3776 971.683 52.9541 971.445 51.7283C971.21 50.5219 971.093 50.0828 970.921 49.7639C970.738 49.4245 970.58 48.8119 970.416 47.7996C970.303 47.0971 969.933 46.4303 969.557 46.2469C968.771 45.8648 968.32 45.7873 967.819 45.948C967.433 46.0716 963.167 46.0965 948.986 46.0578C938.902 46.0303 930.445 45.9646 930.193 45.9117C929.825 45.8344 929.645 45.8765 929.277 46.1246ZM850.898 124.395C853.005 124.547 854.517 124.722 855.547 124.933C855.943 125.013 856.651 125.13 857.119 125.192C859.069 125.448 859.44 125.612 859.688 126.324C859.963 127.113 859.953 153.857 859.677 154.39C859.406 154.914 858.833 155.11 856.922 155.332C856.346 155.398 855.344 155.515 854.696 155.591C853.145 155.772 846.349 155.976 841.666 155.982C837.739 155.987 834.47 155.834 833.317 155.592C832.069 155.329 831.264 155.174 830.534 155.058C829.518 154.896 828.858 154.731 828.177 154.469C827.853 154.345 827.188 154.101 826.7 153.928C825.705 153.574 823.33 152.412 823.053 152.143C822.954 152.047 822.667 151.824 822.415 151.647C821.577 151.061 819.929 149.287 819.581 148.597C819.393 148.223 819.139 147.769 819.018 147.589C818.796 147.261 818.172 145.489 817.934 144.512C817.685 143.49 817.544 141.868 817.542 139.994C817.54 137.105 817.653 136.503 818.713 133.764C819.264 132.342 821.296 129.831 822.677 128.868C822.929 128.692 823.165 128.511 823.201 128.467C823.351 128.283 824.504 127.553 824.645 127.553C824.729 127.553 824.954 127.443 825.145 127.308C825.714 126.907 826.576 126.505 826.867 126.505C827.016 126.505 827.445 126.35 827.82 126.16C828.621 125.754 829.064 125.602 829.912 125.443C831.17 125.207 831.792 125.078 832.368 124.93C833.31 124.69 834.658 124.531 836.581 124.434C837.565 124.385 838.416 124.299 838.472 124.243C838.607 124.107 848.597 124.229 850.898 124.395Z" fill="#F9C943"/>
</g>
<defs>
<clipPath id="clip0">
<rect width="1066.52" height="231.271" fill="white"/>
</clipPath>
</defs>
</svg>
