<svg width="500" height="141" viewBox="0 0 500 141" fill="none" xmlns="http://www.w3.org/2000/svg">
<path fill-rule="evenodd" clip-rule="evenodd" d="M43.2092 1.62672C39.1408 2.34492 34.6789 4.23226 31.9615 6.38458C29.4322 8.38796 26.2588 13.0202 24.3957 17.4285C23.5212 19.4972 21.9089 24.8568 20.8129 29.3387C19.1727 36.0447 18.0593 39.3186 17.2712 39.7499C17.2141 39.7814 3.44618 39.5927 0 39.7499C3.65497 44.3168 1.44339 41.4211 5.85722 46.8383C9.97135 51.8867 13.2928 56.83 13.7963 58.6534C14.2088 60.1469 14.1165 61.4924 13.2896 66.015C11.9126 73.546 12.0912 82.5651 13.6885 86.1529C15.2169 89.5868 19.6455 95.4864 26.0417 95.4864C32.4379 95.4864 69.4793 95.7957 69.4793 95.7957C94.2303 95.8706 115.371 95.8044 116.458 95.6481C117.835 95.4512 118.989 94.8646 120.257 93.7192C122.512 91.6815 123.086 90.5773 124.005 86.4993C124.851 82.7433 124.528 80.8455 122.901 80.019C122.056 79.5891 114.972 79.4511 93.2366 79.441C62.9255 79.4269 61.4078 79.3323 57.2196 77.1951C50.9733 74.0088 49.9471 66.6043 55.0125 61.2681C57.7039 58.4318 57.7807 58.4259 90.4643 58.4172C122.004 58.4085 124.289 58.2678 127.767 56.1178C129.879 54.8125 131.439 52.0041 132.284 47.9859C133.23 43.4912 132.95 42.0325 132.493 41.1187C132.036 40.205 130.742 40.1501 130.742 40.1501L101.367 40.1446C70.87 40.1391 69.6173 40.0702 66.0528 38.2043C63.4299 36.8314 60.7639 34.14 60.176 30.4708C59.3933 25.5851 62.4461 21.1677 66.0528 19.1889C66.0528 19.1889 67.617 18.1933 69.9013 18.1933C72.1857 18.1933 97.12 18.1933 97.12 18.1933C129.455 17.9192 132.522 17.7173 136.115 15.6285C138.393 14.304 139.862 11.5952 140.793 7.00409C141.482 3.60497 141.113 1.88759 139.567 1.30005C138.846 1.02593 121.082 0.882474 92.6358 0.919938C55.446 0.969737 46.1789 1.10223 43.2092 1.62672Z" fill="#8EC21F"/>
<path d="M321.729 0.511955C312.5 1.69982 301.261 4.98929 296.875 7.91327C292.306 10.9286 289.839 14.9491 287.281 23.6296C285.545 29.2949 285.545 29.8431 286.915 29.2035C292.58 26.645 307.931 21.9849 315.515 20.5229C327.668 18.2386 341.1 18.1472 343.11 20.4315C344.664 22.1677 345.121 26.645 344.115 30.3913C343.659 32.2188 342.928 32.493 339.273 32.493C336.988 32.493 330.958 33.1326 325.932 33.8636C292.032 38.9805 274.031 52.2298 272.661 73.1545C271.93 84.4849 276.133 91.6121 286.641 96.7291C302.449 104.405 332.785 103.948 354.715 95.6326C365.771 91.4294 364.309 94.6275 371.985 57.8036C379.203 22.99 379.477 20.5229 375.822 13.4871C372.259 6.63403 366.868 3.16181 357.182 1.51707C348.958 0.0550838 329.221 -0.493162 321.729 0.511955ZM339.729 51.4074C339.364 52.8694 335.526 75.713 335.526 76.8095C335.526 78.2715 327.303 82.8402 323.191 83.6625C316.155 85.1245 311.038 82.8402 308.205 77.0836C305.647 71.6925 305.738 68.5858 308.845 62.5551C312.865 54.5142 321.729 50.1282 334.43 49.9454C339.547 49.8541 340.186 50.0368 339.729 51.4074Z" fill="#00489D"/>
<path d="M167.489 1.33423C165.662 1.60836 163.651 2.8876 162.738 4.16684C161.641 5.62883 159.357 14.5835 156.524 28.381C153.966 40.4424 149.945 59.7224 147.387 71.3269C142.361 94.3532 135.691 125.603 134.869 129.532L134.32 132.091L147.935 131.999C162.829 131.999 166.667 131.177 169.499 127.339C170.505 126.06 172.606 119.298 174.342 112.354C175.987 105.501 177.997 99.1961 178.82 98.3737C180.007 97.1858 182.931 96.9117 195.998 96.729C224.415 96.5462 238.578 91.5206 251.645 77.3576C257.676 70.8701 263.432 59.8138 265.534 50.7677C271.382 26.0053 257.767 4.89783 233.644 1.42561C226.882 0.511867 172.698 0.329118 167.489 1.33423ZM212.354 20.7056C222.405 22.8986 230.081 28.6551 232.73 36.0565C237.847 50.7677 228.162 66.6668 210.344 72.6975C205.41 74.3423 202.851 74.6164 194.627 74.3423C189.236 74.1595 184.485 73.6113 183.937 73.1544C183.388 72.5148 184.485 65.7531 187.135 53.5089C189.328 43.1837 191.612 32.3101 192.16 29.2034C192.708 26.188 193.439 23.1727 193.805 22.5331C195.45 19.9746 204.587 19.0608 212.354 20.7056Z" fill="#00489D"/>
<path d="M390.9 2.61355C388.433 4.44104 388.341 3.80142 394.92 44.3716C395.834 50.1282 397.936 63.6516 399.58 74.3424C403.144 98.3738 403.144 98.3738 391.905 108.79C382.037 118.019 382.037 118.476 392.088 130.903C396.2 136.02 399.946 140.497 400.311 140.771C401.591 141.502 412.281 133.279 419.591 125.695C428.637 116.557 436.587 105.227 452.486 79.0938C475.512 41.2649 480.355 33.3153 490.224 17.1421L500.001 1.33431L482.548 1.60844C482.548 1.60844 470.15 1.60844 467.18 1.60844C464.21 1.60844 462.355 5.08066 462.355 5.08066C460.801 6.81677 452.121 21.1625 443.075 36.9703C430.099 59.5397 426.444 65.2963 425.896 63.9257C425.439 63.012 424.069 54.6055 422.698 45.2853C421.328 35.9652 419.409 22.4418 418.312 15.1318L416.302 1.88256L404.423 1.60844C395.469 1.42569 392.179 1.69981 390.9 2.61355Z" fill="#00489D"/>
</svg>
