<svg width="273" height="192" viewBox="0 0 273 192" fill="none" xmlns="http://www.w3.org/2000/svg">
<path d="M0 0H14.0639V116.027H0V0Z" fill="#333333"/>
<path d="M49.2237 116.028H35.1598V76.4726C35.1598 74.7146 33.6284 71.0771 30.7648 69.4406C25.8425 66.6277 17.2869 73.5425 14.0639 77.3516V66.8039C19.3379 63.5809 31.468 57.6623 37.7968 59.7719C44.1256 61.8815 49.2237 68.5616 49.2237 72.9568V116.028Z" fill="#333333"/>
<path fill-rule="evenodd" clip-rule="evenodd" d="M112.511 100.205C112.511 100.205 106.358 116.906 87.0203 116.906C67.6824 116.906 59.7715 101.084 59.7715 87.0204C59.7715 72.9565 68.5614 58.8926 87.0203 58.8926C105.479 58.8926 113.39 74 113.39 89.6574H72.9564C72.9564 93.1734 72.9564 108.116 87.0203 108.116C99.3263 108.116 99.3263 100.205 99.3263 100.205H112.511ZM87.0205 67.6826C74.7146 67.6826 73.8356 82.6256 73.8356 82.6256H100.205C100.205 82.6256 99.3265 67.6826 87.0205 67.6826Z" fill="#333333"/>
<rect x="125" width="14" height="116" fill="#333333"/>
<path fill-rule="evenodd" clip-rule="evenodd" d="M183.459 58.8926C172.911 58.8926 165 67.6825 165 67.6825V60H151V174H165V107.237C165 107.237 172.911 117.785 183.459 116.906C194.007 116.027 204.555 106.358 203.676 87.8994C202.797 69.4405 194.007 58.8926 183.459 58.8926ZM165 100.806C165 100.806 170.311 107.527 177.393 106.967C184.474 106.407 191.556 100.246 190.966 88.4834C190.375 76.7212 184.474 70 177.393 70C170.311 70 165 75.601 165 75.601V100.806Z" fill="#333333"/>
<path fill-rule="evenodd" clip-rule="evenodd" d="M221.507 174.079H210.959V170.563C210.959 170.563 177.557 181.111 177.557 162.652C177.557 144.193 210.959 145.951 210.959 145.951C210.959 145.951 212.717 133.645 203.927 133.645C192.5 133.607 192.5 140.677 192.5 140.677H179.315C179.315 140.677 181.073 126.575 202.169 126.613C216.233 126.613 221.507 136.245 221.507 138.04V174.079ZM210.959 152.983V162.652C210.959 162.652 190.742 171.442 190.742 161.773C190.742 152.104 210.959 152.983 210.959 152.983Z" fill="#333333"/>
<path d="M228.538 182.356V192C235.615 192 240.038 191.123 243.577 189.37C252.598 184.899 262.154 147.288 271 128H258.615L248 160.438L237.385 128H225C230.603 141.735 241.985 170.082 242.692 173.589C244.449 182.292 233.846 182.356 228.538 182.356Z" fill="#333333"/>
<rect y="146" width="141" height="10" rx="5" fill="#A8C12A"/>
<path d="M210.177 115H271.792V101.829H226.022C226.022 96.5605 226.022 86.0234 234.824 77.2424C245.835 66.2574 286.756 43.8747 268.272 17.5312C250.665 -7.56067 221.914 10.7991 210.177 22.7998L217.219 31.5807C228.662 20.1657 248.027 11.3851 255.949 24.5565C264.742 39.1764 238.345 56.168 223.381 71.0951C211.389 83.0575 209.297 105.048 210.177 115Z" fill="#A8C12A"/>
</svg>
