<svg id="_1" data-name="1" xmlns="http://www.w3.org/2000/svg" viewBox="0 0 668.703 136.837">
    <defs>
        <style>.cls-1{fill:#f01010;}.cls-1,.cls-2,.cls-3{fill-rule:evenodd;}.cls-3{fill:#fefefe;}</style>
    </defs>
    <title>perfect_money_logo</title>
    <path class="cls-1" d="M609.284,397.939a22.706,22.706,0,1,0-22.705-22.705A22.749,22.749,0,0,0,609.284,397.939Z"
          transform="translate(36.714 -352.528)"/>
    <path class="cls-1"
          d="M557.911,394.021c-.454.149-.607.6-.755,1.207a1.974,1.974,0,0,0,.452,1.5l3.467.612a4.71,4.71,0,0,1,2.117.749,1.15,1.15,0,0,1,.6,1.059,12.466,12.466,0,0,1-1.058,3.919c-.75,1.967-1.661,4.374-2.866,7.248l-3.766,8.9c-1.056,2.264-1.967,4.226-2.719,5.729-.753,1.666-1.207,2.421-1.359,2.421s-.452-.606-.905-1.665-.9-2.108-1.354-3.316-.759-2.118-1.056-2.866l-3.474-10.26c-.3-.757-.752-1.817-1.206-3.326-.45-1.354-.908-2.866-1.361-4.22a10.28,10.28,0,0,1-.6-3.017.828.828,0,0,1,.452-.757,9.7,9.7,0,0,1,1.962-.6l2.716-.612c.452-.3.6-.753.452-1.5a1.192,1.192,0,0,0-.755-1.207c-1.661.149-3.316.149-4.974.3h-9.963c-1.661-.155-3.471-.155-5.28-.3a1.189,1.189,0,0,0-.757,1.207,1.541,1.541,0,0,0,.3,1.5l2.868.612a5.836,5.836,0,0,1,4.073,2.712,29.019,29.019,0,0,1,2.414,5.881l8.905,24c.752,1.957,1.209,3.463,1.509,4.527a22.756,22.756,0,0,1,.3,3.164,8.567,8.567,0,0,1-.45,2.566,11.513,11.513,0,0,1-.61,2.26,36.377,36.377,0,0,1-2.414,5.13,59.667,59.667,0,0,1-4.077,7.246,6.955,6.955,0,0,1-1.51,1.507,5,5,0,0,1-2.256.45h-2.111A4.887,4.887,0,0,0,529.689,458a5.611,5.611,0,0,0-1.356,3.318,4.769,4.769,0,0,0,1.356,3.465,5.512,5.512,0,0,0,3.627,1.214,5.715,5.715,0,0,0,3.768-.907c1.353-.757,2.413-2.264,3.471-4.377,1.365-3.02,3.022-6.337,4.678-10.109,1.661-3.618,3.474-7.244,5.135-11.011s3.316-7.251,4.823-10.415c1.509-3.017,2.719-5.578,3.619-7.542L565,408.958a62.478,62.478,0,0,1,4.828-8.6,8.753,8.753,0,0,1,4.68-3.32l1.96-.305a1.906,1.906,0,0,0,.606-1.5,1.557,1.557,0,0,0-.909-1.207c-1.5.149-2.866.149-4.226.3h-8.9C561.379,394.17,559.718,394.17,557.911,394.021Z"
          transform="translate(36.714 -352.528)"/>
    <path class="cls-1"
          d="M208.47,393.112a32.147,32.147,0,0,0-4.829-.449c-6.188.149-11.316,1.358-15.24,3.77a25.081,25.081,0,0,0-8.9,9.356,26.854,26.854,0,0,0-2.714,11.767,26.088,26.088,0,0,0,1.656,9.51,20.087,20.087,0,0,0,4.674,7.083,18.365,18.365,0,0,0,6.941,4.229,22.134,22.134,0,0,0,8.453,1.509,22.568,22.568,0,0,0,6.789-1.053,25.7,25.7,0,0,0,6.79-3.776,17.157,17.157,0,0,0,4.977-6.636c-.153-.45-.3-.906-.755-1.055a1.143,1.143,0,0,0-1.358-.458,15.757,15.757,0,0,1-4.68,4.825,13.873,13.873,0,0,1-7.542,1.815,16.733,16.733,0,0,1-10.1-3.021,19.435,19.435,0,0,1-5.888-7.239,20.728,20.728,0,0,1-2.116-8.753,24.487,24.487,0,0,1,2.269-10.107,16.534,16.534,0,0,1,5.736-5.885,14.288,14.288,0,0,1,7.391-1.957,12.383,12.383,0,0,1,6.486,1.808,15.08,15.08,0,0,1,4.678,3.919,3.93,3.93,0,0,0,.908.754h.75c.759,0,1.209-.454,1.657-1.2a5.749,5.749,0,0,0,.761-2.871,7.061,7.061,0,0,0-.454-2.563,4.185,4.185,0,0,0-1.358-1.812A40.043,40.043,0,0,0,208.47,393.112Z"
          transform="translate(36.714 -352.528)"/>
    <path class="cls-1"
          d="M164.1,399.906a8.038,8.038,0,0,1,.755,3.164,3.265,3.265,0,0,1-.3,1.512,1.542,1.542,0,0,1-.455.753c-.294.3-1.2.454-2.864.6-1.812.153-4.68.307-8.751.307h-7.843c-.454,0-.6,0-.757-.154s-.153-.153-.153-.3a8.168,8.168,0,0,1,1.812-4.074,15.1,15.1,0,0,1,4.678-3.926,11.28,11.28,0,0,1,6.035-1.656,9.539,9.539,0,0,1,5.132,1.209,4.992,4.992,0,0,1,2.712,2.563Zm9.058,8a7.629,7.629,0,0,0,.147-1.968,10.817,10.817,0,0,0-1.96-6.331,17.337,17.337,0,0,0-5.429-4.983,21.172,21.172,0,0,0-8.6-1.959,22.041,22.041,0,0,0-11.616,3.618,21.753,21.753,0,0,0-7.845,9.054,28.913,28.913,0,0,0-2.714,12.675,26.7,26.7,0,0,0,1.053,7.544,23.048,23.048,0,0,0,3.468,6.938,18.131,18.131,0,0,0,6.64,5.284,24.626,24.626,0,0,0,9.656,2.111,18.975,18.975,0,0,0,6.185-1.053,22.07,22.07,0,0,0,6.492-3.322,21.459,21.459,0,0,0,4.827-6.033,3.131,3.131,0,0,0-.6-1.214,2.265,2.265,0,0,0-1.512-.149,12.252,12.252,0,0,1-5.131,4.377,9.255,9.255,0,0,1-4.977,1.058,16.954,16.954,0,0,1-16.446-10.409,26.214,26.214,0,0,1-2.111-10.412c-.153-1.361,0-2.263.456-2.717.3-.3,1.053-.451,2.409-.3h20.67a43.4,43.4,0,0,0,4.984-.149c1.055-.15,1.507-.3,1.659-.6A10.327,10.327,0,0,0,173.163,407.9Z"
          transform="translate(36.714 -352.528)"/>
    <path class="cls-1"
          d="M220.236,397.942a2.352,2.352,0,0,0,.6,1.055h3.019a2.121,2.121,0,0,1,2.111.608,7.52,7.52,0,0,1,.3,2.561v25.652a15.211,15.211,0,0,0,.755,6.034,9.072,9.072,0,0,0,3.473,4.373c1.813,1.064,4.226,1.508,7.243,1.662a17.272,17.272,0,0,0,7.394-1.81,11.66,11.66,0,0,0,4.376-3.476.944.944,0,0,0-.147-1.051.954.954,0,0,0-.907-.754,4.008,4.008,0,0,0-1.209.754,5.732,5.732,0,0,1-1.659.755c-.454.154-.757.454-1.209.6a6.613,6.613,0,0,1-1.655.154c-2.416-.154-4.226-.753-5.433-1.968a7.2,7.2,0,0,1-2.263-4.516,24.768,24.768,0,0,1-.6-6.041V401.716a4.235,4.235,0,0,1,.454-2.264c.151-.455.753-.6,1.808-.455h12.374a2.647,2.647,0,0,0,.908-2.266,2.276,2.276,0,0,0-.908-2.407H236.682a3.082,3.082,0,0,1-1.657-.3,3.382,3.382,0,0,1-.3-1.813v-4.976a1.371,1.371,0,0,0-1.2-.608c-.6-.147-1.058-.147-1.209,0a23.779,23.779,0,0,1-2.26,3.621,12.552,12.552,0,0,1-2.418,2.866,9.425,9.425,0,0,1-2.862,1.815,15.646,15.646,0,0,1-4.231,1.663A4.264,4.264,0,0,0,220.236,397.942Z"
          transform="translate(36.714 -352.528)"/>
    <path class="cls-1"
          d="M83.54,392.059a1.153,1.153,0,0,0-.305-.755c-.151-.152-.3-.152-.6-.152a37.22,37.22,0,0,1-3.623,1.96c-1.36.755-2.868,1.359-4.225,1.965a26.828,26.828,0,0,1-3.32,1.512,1,1,0,0,0-.6,1.051,1.275,1.275,0,0,0,.3.905l1.058.906a6.355,6.355,0,0,1,2.107,1.507,3.594,3.594,0,0,1,.759,2.111,11.12,11.12,0,0,1,0,3.173v19.618a37.836,37.836,0,0,1,0,5.874,3.852,3.852,0,0,1-1.209,2.725,5.791,5.791,0,0,1-2.715,1.053l-2.262.3c-.454.3-.606.757-.454,1.51a2.875,2.875,0,0,0,.6,1.356c1.363-.149,3.022-.3,4.83-.455H85.2c1.812.154,4.071.307,6.636.455a1.47,1.47,0,0,0,.6-1.356c.151-.753,0-1.211-.45-1.51l-4.074-.3a5.282,5.282,0,0,1-2.87-.911,3.709,3.709,0,0,1-1.354-2.866c-.152-1.354-.152-3.312-.152-5.874V410.615a50.074,50.074,0,0,1,.3-5.128,9.953,9.953,0,0,1,1.206-3.47,4.392,4.392,0,0,1,1.661-1.661,3.65,3.65,0,0,1,2.263-.6,6.987,6.987,0,0,1,2.416.45,14.4,14.4,0,0,1,2.559,1.363,6.268,6.268,0,0,1,1.058.6,3.365,3.365,0,0,0,1.361.151,5.3,5.3,0,0,0,3.168-1.056,6.316,6.316,0,0,0,1.661-3.917,3.713,3.713,0,0,0-1.512-3.322,6.481,6.481,0,0,0-3.471-1.358,12.141,12.141,0,0,0-6.19,2.111,60.711,60.711,0,0,0-6.181,4.678,1.767,1.767,0,0,1-.3-1.054Z"
          transform="translate(36.714 -352.528)"/>
    <path class="cls-1"
          d="M56.68,399.906a4.772,4.772,0,0,1,.6,3.164,3.769,3.769,0,0,1-.152,1.512,1.54,1.54,0,0,1-.45.753c-.3.3-1.356.454-3.017.6s-4.527.307-8.6.307H37.218c-.455,0-.6,0-.753-.154s-.154-.153-.154-.3a8.11,8.11,0,0,1,1.817-4.074A14.964,14.964,0,0,1,42.8,397.79a11.255,11.255,0,0,1,6.032-1.656,9.538,9.538,0,0,1,5.13,1.209,5.007,5.007,0,0,1,2.715,2.563Zm9.056,8a7.629,7.629,0,0,0,.147-1.968,10.842,10.842,0,0,0-1.959-6.331,17.317,17.317,0,0,0-5.435-4.983,21,21,0,0,0-8.446-1.959,22.561,22.561,0,0,0-11.769,3.618,24.175,24.175,0,0,0-7.847,9.054,28.884,28.884,0,0,0-2.714,12.675,26.858,26.858,0,0,0,1.053,7.544,23.117,23.117,0,0,0,3.47,6.938,18.984,18.984,0,0,0,6.486,5.284,25.42,25.42,0,0,0,9.811,2.111,18.966,18.966,0,0,0,6.182-1.053,21.945,21.945,0,0,0,6.489-3.322,21.36,21.36,0,0,0,4.83-6.033,3.07,3.07,0,0,0-.6-1.214,2.552,2.552,0,0,0-1.508-.149,12.312,12.312,0,0,1-5.133,4.377,9.5,9.5,0,0,1-5.128,1.058,16.667,16.667,0,0,1-10.109-2.866,16.967,16.967,0,0,1-6.186-7.542,26.274,26.274,0,0,1-2.111-10.412c-.152-1.361,0-2.263.45-2.717.306-.3,1.055-.451,2.42-.3H58.792a43.3,43.3,0,0,0,4.981-.149c1.057-.15,1.509-.3,1.661-.6A9.826,9.826,0,0,0,65.737,407.9Z"
          transform="translate(36.714 -352.528)"/>
    <path class="cls-1"
          d="M143.287,360.373a15.252,15.252,0,0,0-7.695-1.81,22.112,22.112,0,0,0-9.51,2.26,21.055,21.055,0,0,0-6.634,5.434,28.893,28.893,0,0,0-3.921,6.335,38.135,38.135,0,0,0-2.721,9.807,56,56,0,0,0-.9,9.956,2.458,2.458,0,0,1-.453,1.363,2.7,2.7,0,0,1-1.058.752l-4.825,2.416a1.586,1.586,0,0,0-.151,1.205,1.286,1.286,0,0,0,.454.9h3.921c1.053-.149,1.806.154,1.959.608.3.3.3,1.2.153,2.561v23.7a23.27,23.27,0,0,1-.153,5.874,3.86,3.86,0,0,1-1.053,2.725,4.65,4.65,0,0,1-2.866,1.053l-2.568.3a1.594,1.594,0,0,0-.6,1.51,2.018,2.018,0,0,0,.755,1.356q2.488-.223,4.976-.455h11.47c1.808.154,3.919.307,6.487.455a2.876,2.876,0,0,0,.6-1.356c.147-.753,0-1.211-.456-1.51l-3.922-.3a6.462,6.462,0,0,1-3.017-.911,5.153,5.153,0,0,1-1.055-2.866c-.156-1.354-.156-3.312-.156-5.874v-23.7a9.107,9.107,0,0,1,.156-2.561c.152-.454.751-.757,1.808-.608h11.77a2.675,2.675,0,0,0,1.209-1.055,10.572,10.572,0,0,0,.3-1.958,2.063,2.063,0,0,0-.6-1.659H122.314c-1.057.147-1.656,0-1.808-.458a11.207,11.207,0,0,1-.156-2.715v-3.32c0-1.808,0-3.922.156-6.188a45.184,45.184,0,0,1,.751-6.487,50.239,50.239,0,0,1,1.509-6.032,10.522,10.522,0,0,1,3.316-4.526,7.308,7.308,0,0,1,4.535-1.664,8.589,8.589,0,0,1,5.126,1.509,16.8,16.8,0,0,1,3.772,3.478,3.573,3.573,0,0,0,1.358.9,3,3,0,0,0,1.356.3,4.118,4.118,0,0,0,3.023-1.058,5.137,5.137,0,0,0,1.356-2.866A5.97,5.97,0,0,0,143.287,360.373Z"
          transform="translate(36.714 -352.528)"/>
    <path class="cls-1"
          d="M445.5,391.3a1.622,1.622,0,0,0-.755-.152,23.983,23.983,0,0,1-3.162,1.96c-2.472,1.123-5.488,2.621-8,3.478a1.163,1.163,0,0,0-.454,1.051,1.284,1.284,0,0,0,.3.906l1.056.6c.908.755,1.661,1.358,2.113,1.808a3.1,3.1,0,0,1,.65,1.6,27.3,27.3,0,0,1,.111,3.684v19.618a33.347,33.347,0,0,1-.16,5.874,3.837,3.837,0,0,1-1.053,2.725,4.654,4.654,0,0,1-2.866,1.053l-2.418.3a1.545,1.545,0,0,0-.3,1.51,1.468,1.468,0,0,0,.608,1.356q2.26-.223,4.977-.455h10.858c1.663.154,3.327.307,4.677.455a2.023,2.023,0,0,0,.761-1.356,2,2,0,0,0-.456-1.51l-1.959-.3a6.516,6.516,0,0,1-3.024-1.053,4.656,4.656,0,0,1-1.051-2.725c-.151-1.354-.151-3.312-.151-5.874V408.808c0-2.571.052-4.611,1.509-6.79a9.12,9.12,0,0,1,3.921-2.866,13.436,13.436,0,0,1,5.738-1.059c3.772.149,6.335,1.211,7.99,3.168a11.861,11.861,0,0,1,2.418,7.851v16.75c0,2.561,0,4.52-.149,5.874a4.662,4.662,0,0,1-1.058,2.725,7.193,7.193,0,0,1-3.015,1.053l-2.117.3a2.023,2.023,0,0,0-.455,1.51,2.085,2.085,0,0,0,.757,1.356c1.365-.149,3.022-.3,4.83-.455h10.864c1.661.154,3.467.307,5.126.455a2.9,2.9,0,0,0,.757-1.356,1.585,1.585,0,0,0-.6-1.51l-2.412-.3a5.569,5.569,0,0,1-3.018-1.053,4.671,4.671,0,0,1-1.055-2.725c-.154-1.354-.154-3.312-.154-5.874V406.546a16.141,16.141,0,0,0-1.352-6.794,11.68,11.68,0,0,0-4.224-5.13,15.4,15.4,0,0,0-7.546-1.959,24.543,24.543,0,0,0-8.15,1.808,51.251,51.251,0,0,0-7.544,3.927,1.031,1.031,0,0,1-1.055-1.055v-2.266a23.5,23.5,0,0,1,.151-3.018A1.6,1.6,0,0,0,445.5,391.3Z"
          transform="translate(36.714 -352.528)"/>
    <path class="cls-1"
          d="M413.364,399.6a19.571,19.571,0,0,1,4.677,8.146,28,28,0,0,1,1.357,9.806,24.722,24.722,0,0,1-1.2,8.751,17.03,17.03,0,0,1-3.928,7.243,10.359,10.359,0,0,1-7.7,2.868,10.94,10.94,0,0,1-8-3.022,18.117,18.117,0,0,1-4.825-7.842,32.872,32.872,0,0,1-1.661-10.107c.147-6.186,1.354-11.016,3.768-14.187a11.185,11.185,0,0,1,17.5-1.655Zm12.675,28.66a27.841,27.841,0,0,0,3.015-12.514,26.066,26.066,0,0,0-3.17-12.073,21.091,21.091,0,0,0-8.146-8.152,24.182,24.182,0,0,0-23.389.31,22.072,22.072,0,0,0-8.6,8.444,24.752,24.752,0,0,0-3.16,12.67,23.091,23.091,0,0,0,3.16,12.223,21.1,21.1,0,0,0,8,7.849,25.915,25.915,0,0,0,23.986-.154A21.591,21.591,0,0,0,426.039,428.265Z"
          transform="translate(36.714 -352.528)"/>
    <path class="cls-1"
          d="M494.087,406.243c-.3,0-.454,0-.6-.154s-.153-.153-.153-.3a8.19,8.19,0,0,1,1.806-4.074,16.426,16.426,0,0,1,4.536-3.926,12.178,12.178,0,0,1,6.181-1.656,9.341,9.341,0,0,1,4.981,1.209,5.515,5.515,0,0,1,3.471,5.727,3.835,3.835,0,0,1-.149,1.512,1.6,1.6,0,0,1-.455.753c-.3.3-1.356.454-3.02.6s-4.674.307-8.749.307Zm-1.512,3.77a3.893,3.893,0,0,1,2.561-.3h20.679a43.2,43.2,0,0,0,4.977-.149c2.031-.337,2.115-1.666,2.115-3.627a10.992,10.992,0,0,0-2.115-6.331,15.269,15.269,0,0,0-5.28-4.983,21.214,21.214,0,0,0-8.6-1.959,22.036,22.036,0,0,0-11.617,3.618,21.718,21.718,0,0,0-7.843,9.054,27.237,27.237,0,0,0-1.661,20.219,19.867,19.867,0,0,0,3.465,6.938,18.985,18.985,0,0,0,6.489,5.284,24.633,24.633,0,0,0,9.659,2.111,19.916,19.916,0,0,0,6.338-1.053,21.414,21.414,0,0,0,6.34-3.322,21.816,21.816,0,0,0,4.976-6.033,2.086,2.086,0,0,0-.757-1.214,2.25,2.25,0,0,0-1.509-.149,12.951,12.951,0,0,1-4.977,4.377,9.524,9.524,0,0,1-5.135,1.058,16.661,16.661,0,0,1-10.105-2.866,18.333,18.333,0,0,1-6.335-7.542,26.07,26.07,0,0,1-1.758-6.006,30.474,30.474,0,0,1-.407-5.6A2.247,2.247,0,0,1,492.575,410.013Z"
          transform="translate(36.714 -352.528)"/>
    <path class="cls-1"
          d="M300.351,364.6h-4.069c-1.356-.156-3.019-.156-4.678-.3-.449.149-.607.61-.753,1.211a1.748,1.748,0,0,0,.3,1.508l1.812.154a26.408,26.408,0,0,1,4.976,1.356,4.509,4.509,0,0,1,2.111,3.019,19.567,19.567,0,0,1,.3,5.429q-.226,4.751-.448,11.312c-.158,4.38-.456,8.907-.757,13.585-.147,3.619-.445,6.79-.607,9.5-.149,2.872-.446,5.437-.6,7.7-.153,2.414-.452,4.828-.607,7.241a27.962,27.962,0,0,1-1.054,5.734,4.282,4.282,0,0,1-2.111,2.418,12.778,12.778,0,0,1-3.772,1.053l-2.416.3c-.45.3-.6.757-.45,1.51a1.847,1.847,0,0,0,.6,1.356c1.963-.149,3.776-.3,5.734-.455h11.92c2.262.154,4.226.307,6.034.455a1.574,1.574,0,0,0,.757-1.356,1.918,1.918,0,0,0-.608-1.51l-4.218-.3a6.131,6.131,0,0,1-3.171-1.053,4.381,4.381,0,0,1-1.357-3.023,19.214,19.214,0,0,1-.454-6.337c0-4.678.152-9.35.3-14.031s.3-8.753.45-12.222c.147-3.167.457-6.491.6-9.807s.3-6.64.455-9.958h.3c1.211,2.561,2.418,5.128,3.476,7.994,1.209,2.717,2.414,5.433,3.614,8l10.112,21.57q1.364,2.725,3.17,6.8c1.357,2.864,2.714,5.576,3.924,8.292a58.116,58.116,0,0,1,2.715,7.243c.151.154.3.154.454.31l.447.149a1.151,1.151,0,0,0,.759-.149c.15-.156.3-.156.455-.31.753-1.808,1.655-4.074,3.017-6.784,1.207-2.715,2.559-5.736,4.071-8.9,1.661-3.169,3.318-6.486,5.134-9.806l6.208-12.326c3.4-6.754,6.945-15.886,10.832-21.777h.154l.307,46.628a31.36,31.36,0,0,1-.152,5.574c-.339,3-2.615,3.718-5.28,3.928l-3.324.3a1.552,1.552,0,0,0-.3,1.51,1.847,1.847,0,0,0,.6,1.356c2.264-.149,4.672-.3,6.939-.455h12.979c2.258.154,4.525.307,6.789.455a1.464,1.464,0,0,0,.606-1.356,1.763,1.763,0,0,0-.3-1.51l-3.619-.3c-2.536-.235-4.783-1.484-5.13-4.227a42.464,42.464,0,0,1-.307-4.827c-.3-5.433-.447-11.167-.6-17.046-.156-6.039-.459-11.772-.607-17.2v-14.34a31.62,31.62,0,0,1,.45-6.036,5.591,5.591,0,0,1,2.115-3.317,15.264,15.264,0,0,1,5.276-1.356l2.264-.154a1.528,1.528,0,0,0,.308-1.508,1.715,1.715,0,0,0-.455-1.211c-1.812.149-3.621.149-5.277.3h-4.682c-2.79,0-5.51-.093-8.3-.3a28.478,28.478,0,0,1-2.418,8.753c-1.657,3.467-3.619,7.7-6.035,12.673l-10.561,21.274q-2.034,4.305-4.071,8.6a87.425,87.425,0,0,1-4.529,8.3h-.3c-1.361-2.568-2.566-4.978-3.772-7.546-1.358-2.714-2.567-5.428-3.772-7.994L315.444,382.7c-1.656-3.62-3.168-7.091-4.373-10.258a21.823,21.823,0,0,1-1.361-8.15C306.586,364.551,303.481,364.6,300.351,364.6Z"
          transform="translate(36.714 -352.528)"/>
    <path class="cls-1"
          d="M-23.287,366.41a1.553,1.553,0,0,0,.606,1.51l3.923.445a5.774,5.774,0,0,1,3.623,1.363,4.548,4.548,0,0,1,1.352,3.319c.157,1.659.3,4.079.3,7.242v22.327a87.6,87.6,0,0,0,9.058,0V371.84a5.631,5.631,0,0,1,.3-2.866,1.971,1.971,0,0,1,1.508-1.053,32.312,32.312,0,0,1,4.375-.154c5.73.154,10.111,1.659,13.276,4.827,3.017,3.167,4.525,7.545,4.525,12.98a18.344,18.344,0,0,1-3.618,12.216,17.416,17.416,0,0,1-10.11,6.036c-4.373,1.058-10.557,1.51-18.86,1.356-7.241-.144-15.086-.6-23.686-1.5,9.508,1.96,16.6,3.316,21.125,3.766a77.919,77.919,0,0,0,21.421-.3,43.957,43.957,0,0,0,9.508-2.416,53.607,53.607,0,0,0,8.3-4.827,16.7,16.7,0,0,0,4.525-5.736,24.177,24.177,0,0,0,1.806-8.754,21.258,21.258,0,0,0-2.709-9.956,19.225,19.225,0,0,0-6.19-6.783,30.921,30.921,0,0,0-9.355-3.476A72.476,72.476,0,0,0-.5,364.294c-4.531,0-8.6,0-12.223.149s-6.937.3-9.809.6A1.6,1.6,0,0,0-23.287,366.41Z"
          transform="translate(36.714 -352.528)"/>
    <path class="cls-1"
          d="M-4.422,421.635V411.069a43.242,43.242,0,0,1-9.058-.454v11.02a60.727,60.727,0,0,1-.45,8.591c-.153,1.968-.753,3.173-1.817,3.774-.75.759-2.258,1.358-4.521,1.512l-2.265.3a1.455,1.455,0,0,0-.451,1.51,1.464,1.464,0,0,0,.606,1.356q3.616-.223,6.789-.455H-2.313q3.388.231,8.145.455a2.843,2.843,0,0,0,.6-1.356,2.006,2.006,0,0,0-.45-1.51l-3.018-.3q-3.624-.231-4.976-1.363a5.486,5.486,0,0,1-2.116-3.923A47,47,0,0,1-4.422,421.635Z"
          transform="translate(36.714 -352.528)"/>
    <path class="cls-2"
          d="M297.887,456.641h4.622v16.4c0,6.98-3.379,9.306-8.406,9.306a12.379,12.379,0,0,1-3.867-.6l.561-3.719a10.024,10.024,0,0,0,2.856.454c2.624,0,4.235-1.2,4.235-5.6Z"
          transform="translate(36.714 -352.528)"/>
    <path class="cls-2"
          d="M326.753,476.454c0,2.174.07,3.975.147,5.478h-4.048l-.223-2.779h-.084a6.587,6.587,0,0,1-5.852,3.193c-3.338,0-6.382-1.988-6.382-7.952V463.657h4.622V473.6c0,3.041.976,4.992,3.41,4.992a3.9,3.9,0,0,0,3.532-2.476,4.305,4.305,0,0,0,.258-1.428V463.657h4.62Z"
          transform="translate(36.714 -352.528)"/>
    <path class="cls-2"
          d="M334.523,477.692a10.233,10.233,0,0,0,4.69,1.313c2.026,0,2.923-.824,2.923-2.028,0-1.236-.75-1.874-3-2.663-3.565-1.238-5.066-3.189-5.029-5.327,0-3.228,2.664-5.74,6.9-5.74a10.667,10.667,0,0,1,4.841,1.083l-.9,3.264a8.258,8.258,0,0,0-3.868-1.049c-1.649,0-2.55.79-2.55,1.916,0,1.161.862,1.726,3.188,2.547,3.305,1.207,4.841,2.893,4.881,5.6,0,3.3-2.59,5.741-7.433,5.741a11.764,11.764,0,0,1-5.554-1.312Z"
          transform="translate(36.714 -352.528)"/>
    <path class="cls-2"
          d="M358.687,458.968v4.688h4.395v3.453h-4.395v8.07c0,2.21.6,3.379,2.369,3.379a5.737,5.737,0,0,0,1.8-.227l.078,3.525a10.023,10.023,0,0,1-3.342.488,5.349,5.349,0,0,1-3.98-1.539c-.973-1.051-1.423-2.7-1.423-5.1v-8.595h-2.632v-3.453h2.632v-3.376Z"
          transform="translate(36.714 -352.528)"/>
    <path class="cls-2"
          d="M384.954,474.277a4.7,4.7,0,0,0,.158,1.276,4.167,4.167,0,0,0,4.046,3.226c2.928,0,4.658-2.438,4.658-6.041,0-3.228-1.577-5.852-4.54-5.852a4.3,4.3,0,0,0-4.131,3.415,4.236,4.236,0,0,0-.191,1.162v2.815Zm-4.612-4.543c0-2.4-.078-4.351-.152-6.077h4.055l.228,2.816h.073a7.1,7.1,0,0,1,6.265-3.226c4.206,0,7.7,3.6,7.7,9.3,0,6.6-4.164,9.8-8.335,9.8a6,6,0,0,1-5.139-2.441h-.08v9.461h-4.612Z"
          transform="translate(36.714 -352.528)"/>
    <path class="cls-2"
          d="M416.595,470.859c.037-1.688-.712-4.465-3.792-4.465-2.849,0-4.055,2.592-4.235,4.465Zm-8.027,3.228c.1,3.3,2.7,4.732,5.626,4.732a13.64,13.64,0,0,0,5.066-.828l.675,3.193a17.136,17.136,0,0,1-6.378,1.162c-5.932,0-9.423-3.679-9.423-9.27,0-5.068,3.076-9.829,8.935-9.829,5.966,0,7.88,4.876,7.88,8.891a11.577,11.577,0,0,1-.149,1.95Z"
          transform="translate(36.714 -352.528)"/>
    <path class="cls-2"
          d="M427.669,469.547c0-2.476-.042-4.238-.152-5.89h4.011l.156,3.489h.151a5.437,5.437,0,0,1,4.988-3.9,4.91,4.91,0,0,1,1.087.111v4.351a6.538,6.538,0,0,0-1.352-.147,4.066,4.066,0,0,0-4.126,3.489,7.822,7.822,0,0,0-.15,1.425v9.457h-4.613Z"
          transform="translate(36.714 -352.528)"/>
    <path class="cls-2"
          d="M445.605,481.932V467.109h-2.476v-3.453h2.476v-.789a8.538,8.538,0,0,1,2.214-6.227,6.961,6.961,0,0,1,4.767-1.769,8.746,8.746,0,0,1,2.961.457l-.332,3.561a5.43,5.43,0,0,0-1.953-.339c-2.294,0-3.078,1.917-3.078,4.17v.936H454.2v3.453h-3.982v14.823Z"
          transform="translate(36.714 -352.528)"/>
    <path class="cls-2"
          d="M470.934,470.859c.038-1.688-.715-4.465-3.79-4.465-2.848,0-4.051,2.592-4.239,4.465Zm-8.029,3.228c.113,3.3,2.7,4.732,5.63,4.732a13.639,13.639,0,0,0,5.063-.828l.675,3.193a17.125,17.125,0,0,1-6.376,1.162c-5.929,0-9.418-3.679-9.418-9.27,0-5.068,3.076-9.829,8.931-9.829,5.966,0,7.874,4.876,7.874,8.891a11.162,11.162,0,0,1-.151,1.95Z"
          transform="translate(36.714 -352.528)"/>
    <path class="cls-2"
          d="M495.444,481.369a13.2,13.2,0,0,1-5.18.977c-5.711,0-9.417-3.679-9.417-9.346,0-5.477,3.75-9.753,10.168-9.753a11.567,11.567,0,0,1,4.464.859l-.824,3.456a8.117,8.117,0,0,0-3.489-.713c-3.534,0-5.628,2.587-5.6,5.93,0,3.75,2.443,5.888,5.6,5.888a8.988,8.988,0,0,0,3.638-.711Z"
          transform="translate(36.714 -352.528)"/>
    <path class="cls-2"
          d="M507.713,458.968v4.688H512.1v3.453h-4.391v8.07c0,2.21.6,3.379,2.367,3.379a5.734,5.734,0,0,0,1.8-.227l.074,3.525a10,10,0,0,1-3.34.488,5.352,5.352,0,0,1-3.979-1.539c-.975-1.051-1.43-2.7-1.43-5.1v-8.595h-2.619v-3.453h2.619v-3.376Z"
          transform="translate(36.714 -352.528)"/>
    <path class="cls-3"
          d="M608.317,367.872h-1.923c-.315-.035-.7-.035-1.084-.07-.1.035-.141.141-.176.28a.4.4,0,0,0,.071.35l.419.036a6.213,6.213,0,0,1,1.154.315,1.045,1.045,0,0,1,.489.7,4.519,4.519,0,0,1,.07,1.259q-.054,1.1-.1,2.622c-.036,1.015-.105,2.065-.176,3.149-.069,1.677-.22,5.763-.675,6.973a.994.994,0,0,1-.49.561,2.975,2.975,0,0,1-.876.245l-.561.07c-.1.069-.14.175-.1.35a.428.428,0,0,0,.14.315c.455-.035.876-.07,1.331-.105h2.768c.525.035.981.071,1.4.105a.366.366,0,0,0,.176-.315.445.445,0,0,0-.141-.35l-.98-.07a1.422,1.422,0,0,1-.736-.245.755.755,0,0,1-.211-.288,5.367,5.367,0,0,1-.2-1.861c.022-1.084.036-2.168.07-3.252s.07-2.029.1-2.834c.034-.734.106-1.5.14-2.274s.069-1.539.105-2.308h.07c.28.594.56,1.189.8,1.853.28.63.56,1.26.839,1.855l2.344,5q.316.631.734,1.575c.315.664.629,1.294.91,1.923q.222.5.385.939a6.294,6.294,0,0,1,.246.72.348.348,0,0,0,.49,0c.217-.521.445-1.048.7-1.553.662-1.487,1.353-2.907,2.134-4.337l2.274-4.512c.175-.386.349-.8.594-1.26.245-.489.49-.944.7-1.329a6.082,6.082,0,0,1,.383-.8h.036l.071,10.809a7.212,7.212,0,0,1-.035,1.292.7.7,0,0,1-.339.61c-.141.175-.42.244-.876.28l-.771.07a.359.359,0,0,0-.07.35.428.428,0,0,0,.141.315c.525-.035,1.084-.07,1.61-.105H624.7l1.576.105a.34.34,0,0,0,.14-.315.407.407,0,0,0-.07-.35l-.841-.07a1.342,1.342,0,0,1-.842-.317,1.126,1.126,0,0,1-.349-.665,9.945,9.945,0,0,1-.071-1.121c-.072-1.3-.12-2.623-.154-3.928-.036-1.4-.106-2.729-.14-3.987V370.95a7.347,7.347,0,0,1,.1-1.4,1.3,1.3,0,0,1,.49-.769,3.563,3.563,0,0,1,1.224-.315l.525-.036a.358.358,0,0,0,.07-.35.4.4,0,0,0-.1-.28c-.42.035-.84.035-1.225.07h-1.888c-.316-.035-.666-.035-1.119-.07a6.606,6.606,0,0,1-.56,2.029c-.384.8-.838,1.784-1.4,2.938L617.62,377.7a40.133,40.133,0,0,1-1.992,3.893h-.07c-.619-1.168-1.19-2.38-1.751-3.578l-2.972-5.947c-.384-.839-.734-1.643-1.014-2.378a5.053,5.053,0,0,1-.315-1.889c-.42.035-.8.035-1.19.07Zm-14.352,13.3a14.454,14.454,0,0,1-.106,2.033c-.071.9-.664,1.194-1.5,1.251l-.536.071a.484.484,0,0,0,.037.678c1.105-.068,2.1-.108,3.213-.108,1.182,0,2.284.052,3.463.108a.672.672,0,0,0,.143-.321.472.472,0,0,0-.107-.357l-.714-.071a2.12,2.12,0,0,1-1.178-.323l-.038-.028a1.339,1.339,0,0,1-.436-.878,11.08,11.08,0,0,1-.071-2.03v-2.5a10.226,10.226,0,0,1-2.14-.107l-.03,2.579Zm-2.288-13.026a.368.368,0,0,0,.143.357l.927.105a1.357,1.357,0,0,1,.855.322,1.073,1.073,0,0,1,.321.785c.036.391.072.963.072,1.711V376.7a21.038,21.038,0,0,0,2.14,0v-7.274a1.328,1.328,0,0,1,.071-.677.466.466,0,0,1,.356-.248,7.748,7.748,0,0,1,1.034-.036,4.379,4.379,0,0,1,3.137,1.14,4.281,4.281,0,0,1,1.069,3.067,4.337,4.337,0,0,1-.855,2.887,4.118,4.118,0,0,1-2.39,1.427,18.535,18.535,0,0,1-4.457.321c-1.712-.034-3.566-.142-5.6-.356,2.247.464,3.922.784,4.993.891a18.428,18.428,0,0,0,5.062-.07,10.391,10.391,0,0,0,2.247-.571,12.562,12.562,0,0,0,1.961-1.141,3.942,3.942,0,0,0,1.07-1.355,5.723,5.723,0,0,0,.427-2.069,5.026,5.026,0,0,0-.641-2.353,4.536,4.536,0,0,0-1.463-1.6,7.3,7.3,0,0,0-2.211-.822,17.137,17.137,0,0,0-2.888-.214c-1.07,0-2.033,0-2.888.036s-1.64.071-2.318.143A.378.378,0,0,0,591.677,368.142Z"
          transform="translate(36.714 -352.528)"/>
</svg>