<svg xmlns="http://www.w3.org/2000/svg" viewBox="0 0 986.75 348.18"><defs><style>.cls-1{fill:#70706e;}.cls-2{fill:#3d3d3b;}.cls-3{fill:#0b8041;}.cls-4{fill:#e97627;}</style></defs><title>UPI</title><g id="Слой_2" data-name="Слой 2"><g id="OBJECTS"><path class="cls-1" d="M364.5,258.7c3.44-12.58,6.71-24.73,10.08-36.85,10.17-36.65,20.47-73.27,30.43-110,1.28-4.74,3.43-5.82,7.94-5.81q121.23.3,242.46.32c10.09,0,8.09.47,10.58-8.12,4-13.88,7.71-27.85,11.52-41.79.43-1.55.7-3.13,1.21-5.44H422.12c2.29-8.57,4.35-16.37,6.47-24.15,1.88-6.89,4-13.71,5.68-20.66.85-3.59,2.51-4.65,6.17-4.64,38,.14,76,.08,114,.08q81.5,0,163,0c5.92,0,11.26,1.23,15.36,5.77,4.58,5.08,5.14,11.29,3.49,17.39-9.66,35.59-19.42,71.15-29.51,106.61-3.91,13.78-16.35,23.06-30.61,24-2.32.16-4.66.12-7,.12H451.66c-8.53,0-8.53,0-10.73,7.94-8.36,30.25-16.79,60.49-25,90.79-.94,3.46-2.2,4.89-6,4.82-13.5-.25-27-.09-40.49-.11C368,259,366.5,258.82,364.5,258.7Z"/><path class="cls-1" d="M142.55,1.65c-19.3,69.56-38.37,138.32-57.71,208h6.28q97.5,0,195,.11c4.56,0,6.21-1.55,7.38-5.8q27.22-98.74,54.68-197.42c1-3.7,2.47-5.07,6.39-5,13.33.24,26.67.09,40,.1,1.47,0,2.94.14,5.06.25-2.8,10.26-5.46,20.14-8.2,30q-28.81,103.73-57.67,207.43C330,253,322.19,259,308.12,259q-130.76,0-261.5,0c-11.56,0-18.2-5.07-19.69-15.56A25,25,0,0,1,28,233.65Q59.47,120,91,6.44C92,2.57,93.71,1.53,97.49,1.57,112.13,1.77,126.78,1.65,142.55,1.65Z"/><path class="cls-1" d="M831.71.71c-3.17,11.7-6.1,22.72-9.15,33.72Q792.26,143.66,762,252.93c-1.11,4-2.73,5.2-6.78,5.13-14.63-.25-29.27-.1-44.71-.1,1.78-6.71,3.35-12.9,5.05-19Q747.88,122.45,780.08,6C781.25,1.7,783,.53,787.2.61c13,.26,26,.1,39,.1Z"/><path class="cls-2" d="M8.31,326.87a4.23,4.23,0,0,1-.12.56,4.27,4.27,0,0,0-.11.56,2.61,2.61,0,0,1-.08.33,1.33,1.33,0,0,0-.09.34c-.11.45-.21.9-.3,1.34s-.16.88-.21,1.27a10.87,10.87,0,0,0,.82,6.46q1.35,2.73,6.25,3a1.43,1.43,0,0,1,.29,0,1.19,1.19,0,0,0,.36,0h.08a1.55,1.55,0,0,1,.29,0,1.35,1.35,0,0,0,.28,0h.63a2.67,2.67,0,0,0,.64-.08,15.84,15.84,0,0,0,5.17-1.38,12.36,12.36,0,0,0,4.41-3.32,14.68,14.68,0,0,0,2.78-4.55c.63-1.64,1.18-3.31,1.67-5a4.18,4.18,0,0,1,.12-.64c.06-.22.13-.46.21-.71s.17-.58.23-.86.14-.56.23-.85l6.35-23.6h7.23l-7.07,26.13A76.33,76.33,0,0,1,34.83,336a18.12,18.12,0,0,1-7,7.92,20.86,20.86,0,0,1-4.89,2.23,28.12,28.12,0,0,1-5.25,1.12,13.28,13.28,0,0,1-1.61.19c-.52,0-1.05,0-1.59,0-.34,0-.69,0-1,0s-.68,0-1,0c-.54,0-1.06-.11-1.56-.19L9.38,347q-6.69-1.2-8.29-5.53a19.76,19.76,0,0,1-.85-9.71c.11-.74.24-1.5.4-2.27s.33-1.53.54-2.28c.12-.55.25-1.09.38-1.64s.25-1.07.36-1.57.31-1,.43-1.46.23-.93.34-1.38l5.73-21.27h7.3Z"/><path class="cls-2" d="M54.42,300h1.92L76,327.19a18.24,18.24,0,0,1,1.61,2.2c.48.77,1,1.55,1.44,2.35a6,6,0,0,0,.35.67l.36.6c.08-.6.18-1.21.29-1.83s.24-1.23.37-1.83l.41-1.83c.13-.62.27-1.23.4-1.83l7.16-25.75h6.79L82.41,346.38h-1.7L61.1,319.12c-.66-.9-1.29-1.83-1.9-2.8s-1.17-2-1.71-3c-.13.6-.27,1.2-.4,1.8s-.29,1.19-.47,1.79-.27,1.19-.4,1.79-.29,1.19-.47,1.79l-7,25.91H42.07Z"/><path class="cls-2" d="M104.13,299.94h7.3L98.78,346.38H91.55Z"/><path class="cls-2" d="M120.8,300h25.52l-1.59,6.57H126.07l-3,11.64h18.51l-1.79,6.42H121.17l-5.87,21.79h-7.15Z"/><path class="cls-2" d="M155.31,300h7.3L150,346.39h-7.23Z"/><path class="cls-2" d="M172,300h25.51l-1.58,6.57H177.25l-3,11.65h18.51l-1.79,6.42H172.35l-4,15.08h18.58L185,346.4H159.32Z"/><path class="cls-2" d="M207.15,300h9.74a66.42,66.42,0,0,1,10.11.75,13.7,13.7,0,0,1,8.37,4.71,14.71,14.71,0,0,1,3.69,7,23.91,23.91,0,0,1,.41,8.36c0,.15,0,.27-.05.37s0,.2,0,.3c0,.3-.09.6-.13.9a5.69,5.69,0,0,1-.2.89,33.09,33.09,0,0,1-4.11,10.34,26.15,26.15,0,0,1-7.32,8,23,23,0,0,1-9.94,4.1,75.66,75.66,0,0,1-10.2.67h-13Zm-2.35,39.76c.44,0,.88,0,1.33,0h.37a9,9,0,0,0,1.17.08h1.1c.49,0,1,0,1.48,0s1-.06,1.49-.11a17.15,17.15,0,0,0,1.9-.11c.62-.07,1.23-.14,1.83-.19a17.31,17.31,0,0,0,10.12-4.85,21.74,21.74,0,0,0,5.75-9.93,5.91,5.91,0,0,1,.13-.63,6.93,6.93,0,0,0,.13-.71,5.44,5.44,0,0,1,.13-.63,6.06,6.06,0,0,0,.13-.64c0-.25.06-.48.1-.71a3.32,3.32,0,0,0,0-.71,16.36,16.36,0,0,0-.69-6.08,10.38,10.38,0,0,0-3.15-4.89,9.72,9.72,0,0,0-4.08-2.17,24.94,24.94,0,0,0-4.73-.75,11.38,11.38,0,0,0-1.31-.07h-5.53l-8.93,33.07C204,339.69,204.37,339.7,204.8,339.73Z"/><path class="cls-2" d="M250.54,346.42,263.2,300H275a25.76,25.76,0,0,1,6.12,1,8.44,8.44,0,0,1,4.73,3.62,10.29,10.29,0,0,1,1.25,3.17,12.94,12.94,0,0,1,.25,3.48,1.5,1.5,0,0,1,0,.52c0,.2-.06.4-.08.6s0,.18,0,.26,0,.16,0,.26a17.17,17.17,0,0,1-4.39,8.43,14.75,14.75,0,0,1-8.31,4.78,4.84,4.84,0,0,0-.63,0,4.27,4.27,0,0,0-.64.11,9.3,9.3,0,0,1-.94.11c-.32,0-.66.06-1,.11-.55.05-1.08.09-1.6.11s-1.05,0-1.59,0-.8,0-1.21,0-.82,0-1.22,0-.87,0-1.28,0-.82,0-1.21,0l-5.46,19.93ZM265.63,320q.44,0,.87,0l.59,0a3.77,3.77,0,0,0,.58,0h2.22a17.16,17.16,0,0,0,6.33-1.49c2-.9,3.24-2.76,3.73-5.6l0-.22q.51-3.66-1.83-4.82a13.55,13.55,0,0,0-5.35-1.31h-4.35l-3.64,13.29A8.1,8.1,0,0,1,265.63,320Z"/><path class="cls-2" d="M318.25,298.13l9.87,48.31h-7.45l-2.13-11.05H300.25l-7.52,11.05h-7.67Zm-.76,31.14-2-11.5c-.1-.7-.17-1.41-.22-2.13s-.06-1.46-.06-2.2c0-.2,0-.42,0-.67s0-.5,0-.75c-.19.3-.38.62-.58,1s-.39.67-.58,1l-1.13,2a20.9,20.9,0,0,1-1.18,1.86L304,329.26Z"/><path class="cls-2" d="M345.94,300l5.48,15.53a2,2,0,0,1,.19.48,3.47,3.47,0,0,1,.11.56,2.38,2.38,0,0,1,.19.49,4.27,4.27,0,0,1,.11.56c.09.35.19.7.29,1a7.85,7.85,0,0,1,.22,1.05c.5-.75,1-1.48,1.57-2.2a26.31,26.31,0,0,1,1.69-2L368.43,300h8.26l-22,25.75-5.57,20.68h-7.3l5.67-20.9L338.27,300Z"/><path class="cls-2" d="M423.4,319.52c.17-1,.37-2.07.61-3.07q-.4.75-.87,1.5c-.32.49-.64,1-.95,1.49s-.66,1-1,1.49l-1.1,1.5-20.21,25.75L394,322.42c-.21-1-.38-2-.54-3s-.28-2-.39-2.95c-.34,1-.68,2-1,3.07a22.07,22.07,0,0,1-1.33,3.13l-10.21,23.82h-7.15l21.78-48.37,6.84,30c.09.4.18.79.27,1.16s.19.76.28,1.16c.15.74.29,1.49.43,2.24a23.45,23.45,0,0,1,.32,2.39c.77-1.24,1.56-2.47,2.36-3.66s1.63-2.34,2.48-3.43l23.52-29.86-4.74,48.38h-7.08l3.12-23.74C423.06,321.63,423.22,320.56,423.4,319.52Z"/><path class="cls-2" d="M442.25,300h25.52l-1.59,6.57H447.52l-3,11.65H463l-1.79,6.42H442.62l-4,15.08h18.58l-1.9,6.72H429.6Z"/><path class="cls-2" d="M476.83,300.12h1.91l19.63,27.18a19.07,19.07,0,0,1,1.61,2.2c.48.77,1,1.56,1.44,2.35a6.15,6.15,0,0,0,.34.68l.36.59c.09-.59.18-1.2.3-1.83s.23-1.23.37-1.82.26-1.21.4-1.83.27-1.24.4-1.83l7.17-25.76h6.78l-12.73,46.44h-1.69L483.5,319.23c-.66-.89-1.29-1.83-1.89-2.8s-1.17-2-1.71-3c-.14.6-.27,1.19-.4,1.79s-.29,1.19-.48,1.79-.26,1.2-.4,1.79-.29,1.2-.47,1.79l-7,25.91h-6.71Z"/><path class="cls-2" d="M532,306.7H519.56l1.82-6.65h31.34l-1.89,6.65H539.17l-10.76,39.8h-7.22Z"/><path class="cls-2" d="M555.72,334.26a1.64,1.64,0,0,0,.13.41c.06.12.1.24.14.34a19.34,19.34,0,0,0,2,3.77,5.93,5.93,0,0,0,3.43,2.35,2.09,2.09,0,0,0,.43.11,1.71,1.71,0,0,0,.36,0,6.31,6.31,0,0,0,.65.11,3.69,3.69,0,0,0,.58,0,9.9,9.9,0,0,0,6.14-2.24,8.21,8.21,0,0,0,3.35-5.45,9.87,9.87,0,0,0,.1-1.23,6.62,6.62,0,0,0-.11-1.31,3.82,3.82,0,0,0-.15-.78,6.14,6.14,0,0,0-.29-.79,8.22,8.22,0,0,0-2.21-2.42c-1-.73-2-1.41-3-2.06-.55-.3-1.08-.61-1.6-.93s-1-.64-1.53-.93a7.63,7.63,0,0,1-.67-.49c-.22-.17-.44-.34-.67-.49a9.23,9.23,0,0,1-2.92-3.84,11.66,11.66,0,0,1-.9-4.67,6.17,6.17,0,0,0,.07-.74c0-.25,0-.5.07-.75s.1-.61.17-.93.15-.64.24-.94a16.15,16.15,0,0,1,3.23-5.89,14.88,14.88,0,0,1,5.65-4.26,23,23,0,0,1,2.43-.78,17.39,17.39,0,0,1,2.47-.49c.29,0,.58,0,.85,0a7,7,0,0,1,.78,0h.63a2.92,2.92,0,0,1,.61.07,13.61,13.61,0,0,1,6.28,2,11,11,0,0,1,4.33,4.85l-4.84,4a12.67,12.67,0,0,0-2.76-3.44,6.29,6.29,0,0,0-4.23-1.42,9.6,9.6,0,0,0-4.59,1.16,7.28,7.28,0,0,0-3.21,3.47l-.22.48a2.73,2.73,0,0,0-.15.56,3.31,3.31,0,0,0-.29.75,6.58,6.58,0,0,0-.14.75,4.74,4.74,0,0,0,1.54,4.48,28.12,28.12,0,0,0,4.32,3.13,3,3,0,0,0,.4.26,3.62,3.62,0,0,1,.41.27c.64.35,1.24.69,1.81,1a10.46,10.46,0,0,1,1.5,1.12,10.59,10.59,0,0,1,3,4.48,13.7,13.7,0,0,1,.77,5.53,3.34,3.34,0,0,1,0,.71c0,.22-.07.46-.1.71a16.27,16.27,0,0,1-2.7,6.83,14.08,14.08,0,0,1-5.89,5,13.72,13.72,0,0,1-2.88,1.05c-1,.24-2,.44-3,.59-.45.05-.9.09-1.35.11s-.89,0-1.33,0-.69,0-1,0-.68-.06-1-.11c-.49,0-.95-.11-1.38-.19s-.86-.16-1.29-.26a9.85,9.85,0,0,1-5.08-3.17,17.06,17.06,0,0,1-2.95-5.27Z"/><path class="cls-2" d="M620.19,300.08h7.3l-12.65,46.44h-7.23Z"/><path class="cls-2" d="M636.55,300.16h1.92l19.63,27.18a20.32,20.32,0,0,1,1.61,2.2c.48.78,1,1.56,1.43,2.36.12.25.23.47.35.67l.36.6q.12-.9.3-1.83t.36-1.83c.14-.6.27-1.21.41-1.83s.27-1.23.4-1.83l7.17-25.76h6.78l-12.73,46.43h-1.69l-19.62-27.26c-.66-.89-1.29-1.83-1.89-2.79s-1.17-2-1.71-3c-.14.6-.27,1.19-.4,1.79s-.3,1.2-.48,1.79-.27,1.2-.4,1.8-.29,1.19-.47,1.79l-7,25.9H624.2Z"/><path class="cls-2" d="M691.67,306.74H679.29l1.82-6.64h31.34l-1.9,6.64H698.9l-10.76,39.79h-7.23Z"/><path class="cls-2" d="M721.52,300.11H747l-1.59,6.57H726.79l-3,11.65h18.51l-1.79,6.42H721.88l-4,15.08h18.58l-1.9,6.72H708.86Z"/><path class="cls-2" d="M743.74,346.55l12.66-46.43h11.13a31.09,31.09,0,0,1,4.74.67,9,9,0,0,1,4.09,2.1,8.3,8.3,0,0,1,2.44,3.62,10.88,10.88,0,0,1,.56,4.44,1.54,1.54,0,0,1,0,.48c0,.18-.05.37-.08.57l-.1.74a14.92,14.92,0,0,1-4.43,9.18,18.52,18.52,0,0,1-9.22,4.48l9.78,20.16h-8l-9.37-19.94h-1.54l-5.46,19.94Zm14.65-25.75h.48a1.41,1.41,0,0,0,.47.07h2.25a18.16,18.16,0,0,0,6.59-1.49c2.07-.89,3.31-2.86,3.74-5.89l0-.15c.41-2.89-.25-4.69-2-5.42a16.19,16.19,0,0,0-5.88-1.16h-2.43l-3.75,14Z"/><path class="cls-2" d="M790.54,300.13h25.52l-1.59,6.57H795.81l-3,11.65h18.51l-1.79,6.42H790.91L785,346.56h-7.15Z"/><path class="cls-2" d="M845.59,298.27l9.88,48.31H848l-2.14-11.05H827.6l-7.53,11H812.4Zm-.76,31.14-2-11.5q-.15-1.05-.21-2.13c0-.72-.07-1.45-.06-2.2,0-.2,0-.42-.06-.67s0-.5,0-.75c-.19.3-.38.62-.58,1s-.39.67-.58,1l-1.13,2A19.55,19.55,0,0,1,839,318l-7.66,11.42Z"/><path class="cls-2" d="M901.17,311.06a17.34,17.34,0,0,0-5.59-4,16.45,16.45,0,0,0-6.84-1.46c-.4,0-.8,0-1.22,0s-.84.06-1.24.11-.89.19-1.32.26a8.22,8.22,0,0,0-1.27.34,19.47,19.47,0,0,0-9.74,6.9A26.74,26.74,0,0,0,868.83,324c0,.1,0,.2-.05.3s0,.2,0,.3,0,.1,0,.15,0,.1,0,.15h-.07c0,.1,0,.2,0,.3a15,15,0,0,0,2.1,10.49,11.68,11.68,0,0,0,8.88,5.34,2.07,2.07,0,0,0,.46.11,3.16,3.16,0,0,0,.55,0,7,7,0,0,1,.77,0l.69,0a18.26,18.26,0,0,0,6.91-1.37,35,35,0,0,0,6.53-3.47l-2.8,8.88a36.51,36.51,0,0,1-4.45,1.23c-1.52.32-3.05.58-4.6.78l-1.8.15c-.59,0-1.19.08-1.78.08s-1,0-1.47,0-1-.06-1.45-.11a23.67,23.67,0,0,1-4.31-.86,14.35,14.35,0,0,1-3.87-1.83,15.2,15.2,0,0,1-6.59-8.18,22.74,22.74,0,0,1-1-10.57c.06-.44.13-.88.22-1.3s.18-.86.29-1.31a34.5,34.5,0,0,1,8.91-15.86,24.91,24.91,0,0,1,16-8.17,7.81,7.81,0,0,0,.85,0,8,8,0,0,1,.86,0h1.69a24.25,24.25,0,0,1,7,1,21.66,21.66,0,0,1,6.25,3Z"/><path class="cls-2" d="M913,300.16h25.51L937,306.74H918.3l-3,11.65h18.51L932,324.8H913.4l-4,15.08h18.58L926,346.6H900.38Z"/><polygon class="cls-3" points="850.08 258.67 922.08 0 986.75 129.33 850.08 258.67"/><polygon class="cls-4" points="803.75 258.67 875.75 0 940.42 129.33 803.75 258.67"/></g></g></svg>